<svg xmlns="http://www.w3.org/2000/svg" fill="none" viewBox="0 0 159 28">
  <path fill="#2882DE" fill-rule="evenodd" d="M2.13 21.82a22.12 22.12 0 0 0 1.26-3.72h3.18c.14-.3.38-.4.63-.62a.6.6 0 0 0 0-.63c.07-.69.12-2.9 1.27-3.72.13-.15.27-.45 0-.62.2-.42.01-.68 0-.63-.32-.2-1.52-.79-2.55-1.86h.63a16.3 16.3 0 0 0 7.64 1.24h7.64v-1.25h-7.65V2.57c.06-.42.26-.62.63-.62h8.27c.43 0 .63.2.63.62V25.5c0 .42-.2.61-.64.61H14.8c-.38 0-.58-.2-.64-.62v-7.44c1.53-.75 3.3-.67 5.73 0 .74.17 1.43.34 1.9.62V16.8l-1.27-.62c-1.7-.22-3.08-.42-4.46-.62-2.6.2-3.96 1.3-5.1 2.48-.89.47-1.49.96-2.55 1.23H5.23c-.7-.27-1.03-.04-1.28.62.12-.3-.5 1.51-.63 2.48-.38.3-.82.15-.64 0-.52.03-.75-.16-.64-.62l.09.07Zm23.55-10.54a4.53 4.53 0 0 0 3.81-1.86V8.8c.18-.42.46-.91.63-1.25h.63V9.4c-.2.33.06.68.63.62-.18.16 2.1.76 3.82 1.24v1.85c.01.28-.12.38 0 .62-.45.01-1.09.08-1.92 0-.5-.24-1.79-.53-1.9-.62-.17.02-.43-.02-.64 0-1.37-.02-2.11.84-2.55 1.85-.14.8.3 2.21 1.9 3.1.9.16 3.65.95 5.73 1.24.34.4.86.54 1.27.61.31.15.56.34.63.62.02.14-.04.33 0 .61-.28-.05-.42 0-.64 0-.05 0-.16-.02 0 0-4.87-1.45-7.9-2.36-11.46-3.1v-6.82l.06.06ZM1.49 24.3c.48.07.78.12 1.27 0 .79.12 1.6-.42 1.9-1.24.28-.6.6-1.5.63-1.86v-.63h3.18c1.64.28 2.67-.57 3.81-1.24-.14-.16-.03-.24 0-.63v6.82c.2 1.5 1.2 2.48 2.55 2.48h8.26c1.5 0 2.5-.98 2.54-2.49v-6.2.62c3.48.64 6.67 1.57 10.82 2.48.92.57 1.83.39 2.54 0a3.4 3.4 0 0 0 .63-2.49 3.89 3.89 0 0 0-1.91-1.86c-.46.08-6.08-1.56-7-1.86-.34-.09-.54-.22-.65-.63-.05.07-.05-.1 0 0 .17-.63.5-.75 1.27-.62-.24-.02 1.07.27 1.9.62.28-.1.64-.06 1.27 0 .25-.06 1.04-.16 1.9-.63.15-.32.62-.88.64-1.86V10.6c-.02-.3-.29-.63-.64-.63-.88-.36-2.23-.72-3.82-1.24V6.86c-.32-.72-.72-1.1-1.28-1.25-2.29.13-3.14 1.78-3.82 2.48v.61c-.19.32-.43.78-1.9.62V2.5C25.52 1 24.52 0 23.01 0h-8.27c-1.36 0-2.35.97-2.55 2.48V9.3a13.7 13.7 0 0 1-5.1-.63A6.33 6.33 0 0 1 5.2 7.44c-.64-.67-.98-.8-1.28-.63-.46.08-.7.5-.64.62.53 2.77 2.2 4.6 3.18 4.96-.88 1.28-1.06 2.6-1.27 3.71H2.64c-.25-.12-.59.12-.64.62-.32.59-1.2 3.06-1.9 4.33a2.7 2.7 0 0 0 1.26 3.1l.13.14Z" clip-rule="evenodd"/>
  <path fill="#2882DE" fill-rule="evenodd" d="M16.77 23.06h3.87v1.24h-3.88v-1.24ZM118.93 1.6h-1.06c-.67 0-1.2.52-1.2 1.18v1.6c0 .66.53 1.19 1.2 1.19h1.05c.66 0 1.19-.53 1.19-1.19V2.76a1.2 1.2 0 0 0-1.2-1.19M108 14.54l5.23-5.1a1.07 1.07 0 0 0-.75-1.82h-1.18c-.3 0-.56.1-.77.32l-7.57 7.72V1.92c0-.59-.48-1.07-1.08-1.07H101c-.6 0-1.07.47-1.07 1.06V23.9c0 .59.47 1.06 1.06 1.06h.88c.58 0 1.07-.48 1.07-1.07v-4.36l2.94-2.93 5.55 7.9c.2.27.52.44.87.44h1.07a1.06 1.06 0 0 0 .87-1.68l-6.31-8.77m-31.71 7.77c-3.28 0-5.57-2.45-5.57-5.95s2.28-5.95 5.56-5.95c3.25 0 5.43 2.39 5.43 5.94 0 3.56-2.19 5.94-5.44 5.94l.02.02Zm7.35-14.62h-.87c-.67 0-1.2.53-1.2 1.18v.81l-.2-.2a7.5 7.5 0 0 0-5.43-2.07c-4.92 0-8.49 3.75-8.49 8.93s3.57 8.94 8.48 8.94c2.18 0 4.06-.71 5.42-2.04l.2-.21v.79c0 .65.53 1.18 1.2 1.18h.85a1.2 1.2 0 0 0 1.2-1.19V8.78a1.2 1.2 0 0 0-1.2-1.18l.04.04Zm13.09-.23c-2.52.25-4 1.64-4.81 2.77l-.23.3V8.8c0-.65-.53-1.18-1.2-1.18h-.86c-.67 0-1.2.53-1.2 1.18v14.97c0 .65.53 1.18 1.2 1.18h.85c.66 0 1.2-.54 1.2-1.19v-6.5a7.9 7.9 0 0 1 1.27-4.34l.06-.14.06-.1.12-.12a5.05 5.05 0 0 1 3.7-2 1.2 1.2 0 0 0 1.1-1.19v-.85a1.2 1.2 0 0 0-1.32-1.18m22.23.31h-.86c-.66 0-1.2.52-1.2 1.17V23.8c0 .66.53 1.18 1.19 1.18h.86a1.2 1.2 0 0 0 1.19-1.18v-15a1.2 1.2 0 0 0-1.2-1.19m38.9.03h-.87c-.66 0-1.2.53-1.2 1.18v8.74c0 .9-.22 1.77-.66 2.5a1 1 0 0 0-.16.4l-.01.06-.06.02c-.14.07-.26.16-.36.26a4.7 4.7 0 0 1-3.45 1.42c-2.6 0-4.33-1.87-4.33-4.65V8.78a1.2 1.2 0 0 0-1.2-1.18h-.87c-.65 0-1.2.53-1.2 1.18v8.84c0 4.97 3.56 7.57 7.08 7.57 2.01 0 3.6-.64 4.98-2.01l.2-.21v.77c0 .65.54 1.17 1.2 1.17h.86a1.2 1.2 0 0 0 1.19-1.18V8.75c0-.66-.54-1.18-1.2-1.18m-25.12-.19c-.52 0-.97.02-1.37.09-1 .15-1.46.72-1.38 1.68.09.98.58 1.38 1.58 1.26.27-.04.54-.07.82-.07 3.27 0 5.56 2.45 5.56 5.95 0 3.49-2.29 5.94-5.57 5.94-2.63 0-5.3-1.55-5.3-4.52V2.15a1.2 1.2 0 0 0-1.2-1.19h-.86c-.66 0-1.2.53-1.2 1.19v21.61c0 .65.53 1.18 1.19 1.18h.86a1.2 1.2 0 0 0 1.19-1.18v-.8l.2.2a7.46 7.46 0 0 0 5.43 2.03c4.9 0 8.47-3.76 8.47-8.94s-3.57-8.94-8.48-8.94m-75.85.07c-.52 0-.96.02-1.37.09-1.01.15-1.47.7-1.38 1.68.08.98.6 1.38 1.58 1.26.26-.04.53-.07.81-.07 3.28 0 5.57 2.45 5.57 5.95 0 3.49-2.3 5.94-5.58 5.94-2.63 0-5.3-1.55-5.3-4.52V2.15a1.2 1.2 0 0 0-1.2-1.19h-.86c-.67 0-1.2.53-1.2 1.19v21.61c0 .65.53 1.18 1.2 1.18h.85c.66 0 1.2-.53 1.2-1.18v-.8l.2.2a7.45 7.45 0 0 0 5.41 2.03c4.92 0 8.48-3.76 8.48-8.94s-3.57-8.94-8.48-8.94" clip-rule="evenodd"/>
</svg>