<svg id="GROUND" xmlns="http://www.w3.org/2000/svg" viewBox="0 0 1600 1400"><defs><style>.cls-1{fill:#000;}.cls-2{fill:#FF9F1C;}.cls-3{fill:#fff;}.cls-4{fill:#0B132B;}</style></defs><title>Checkout</title><path class="cls-1" d="M1315.85,1288.69H401.22a2.29,2.29,0,0,1,0-4.58h914.63A2.29,2.29,0,1,1,1315.85,1288.69Z"/><path class="cls-1" d="M1029.31,1333.94H687.77a2.29,2.29,0,1,1,0-4.58h341.54A2.29,2.29,0,0,1,1029.31,1333.94Z"/><path class="cls-1" d="M656.43,1333.94H527.09a2.29,2.29,0,1,1,0-4.58H656.43A2.29,2.29,0,1,1,656.43,1333.94Z"/><path class="cls-1" d="M1168.51,1333.94H1136.8a2.29,2.29,0,1,1,0-4.58h31.72A2.29,2.29,0,1,1,1168.51,1333.94Z"/><path class="cls-2" d="M1232,257.66h0a12.58,12.58,0,0,1,12.58,12.58V414.33A12.58,12.58,0,0,1,1232,426.91h0a0,0,0,0,1,0,0V257.66a0,0,0,0,1,0,0Z"/><path class="cls-2" d="M1232,455.95h0a12.58,12.58,0,0,1,12.58,12.58v32.36A12.58,12.58,0,0,1,1232,513.47h0a0,0,0,0,1,0,0V455.95A0,0,0,0,1,1232,455.95Z"/><rect class="cls-3" x="702.32" y="166.09" width="529.65" height="1120.31" rx="4.17" ry="4.17"/><path class="cls-1" d="M1219.26,1288.69H715a15,15,0,0,1-15-15V178.8a15,15,0,0,1,15-15h504.23a15,15,0,0,1,15,15V1273.69A15,15,0,0,1,1219.26,1288.69ZM715,168.38A10.43,10.43,0,0,0,704.6,178.8V1273.69A10.44,10.44,0,0,0,715,1284.12h504.23a10.43,10.43,0,0,0,10.42-10.42V178.8a10.43,10.43,0,0,0-10.42-10.42H715Z"/><path class="cls-3" d="M1201.46,207.47V1245.05a10.85,10.85,0,0,1-10.85,10.85h-447a10.85,10.85,0,0,1-10.85-10.85V207.44a10.84,10.84,0,0,1,10.84-10.84H873.29a13,13,0,0,1,13,13h0a13,13,0,0,0,13,13H1035a13,13,0,0,0,13-13h0a13,13,0,0,1,13-13h129.63A10.91,10.91,0,0,1,1201.46,207.47Z"/><path class="cls-1" d="M1190.62,1258.19h-447a13.15,13.15,0,0,1-13.13-13.13V207.44a13.15,13.15,0,0,1,13.13-13.13H873.28a15.3,15.3,0,0,1,15.29,15.28,10.72,10.72,0,0,0,10.71,10.71H1035a10.72,10.72,0,0,0,10.71-10.71A15.3,15.3,0,0,1,1061,194.31h129.63a13.18,13.18,0,0,1,13.16,13.16V1245.05A13.15,13.15,0,0,1,1190.62,1258.19Zm-447-1059.3a8.57,8.57,0,0,0-8.56,8.56V1245.05a8.57,8.57,0,0,0,8.56,8.56h447a8.57,8.57,0,0,0,8.56-8.56V207.47a8.6,8.6,0,0,0-8.59-8.59H1061a10.72,10.72,0,0,0-10.71,10.71A15.3,15.3,0,0,1,1035,224.87H899.28A15.3,15.3,0,0,1,884,209.59a10.72,10.72,0,0,0-10.71-10.71H743.65Z"/><path class="cls-2" d="M1201.47,207.49v69.86H732.81V207.42a10.83,10.83,0,0,1,10.83-10.83H873.29a13,13,0,0,1,13,13,13,13,0,0,0,13,13H1035a13,13,0,0,0,13-13,13,13,0,0,1,13-13h129.62A10.92,10.92,0,0,1,1201.47,207.49Z"/><path class="cls-1" d="M1201.47,279.63H732.81a2.29,2.29,0,0,1-2.29-2.29V207.42a13.13,13.13,0,0,1,13.12-13.12H873.29a15.3,15.3,0,0,1,15.29,15.28,10.73,10.73,0,0,0,10.71,10.71H1035a10.72,10.72,0,0,0,10.71-10.71A15.31,15.31,0,0,1,1061,194.31h129.62a13.19,13.19,0,0,1,13.18,13.18v69.86A2.29,2.29,0,0,1,1201.47,279.63ZM735.1,275.05h464.08V207.49a8.61,8.61,0,0,0-8.6-8.6H1061a10.73,10.73,0,0,0-10.71,10.71A15.3,15.3,0,0,1,1035,224.87H899.28A15.31,15.31,0,0,1,884,209.59a10.72,10.72,0,0,0-10.71-10.71H743.64a8.55,8.55,0,0,0-8.54,8.54v67.63Z"/><path class="cls-2" d="M732.81,1191.71h468.66V1245a10.84,10.84,0,0,1-10.86,10.86h-447A10.84,10.84,0,0,1,732.81,1245v-53.32Z"/><path class="cls-1" d="M1190.61,1258.19h-447A13.15,13.15,0,0,1,730.52,1245v-53.32a2.29,2.29,0,0,1,2.29-2.29h468.66a2.29,2.29,0,0,1,2.29,2.29V1245A13.16,13.16,0,0,1,1190.61,1258.19ZM735.1,1194v51a8.57,8.57,0,0,0,8.54,8.57h447a8.58,8.58,0,0,0,8.57-8.57v-51H735.1Z"/><rect class="cls-4" x="865.71" y="476.38" width="202.85" height="122.8" rx="6.96" ry="6.96" transform="translate(-97 841.38) rotate(-45)"/><rect class="cls-2" x="848.52" y="507.37" width="202.85" height="26.44" transform="translate(-89.88 824.19) rotate(-45)"/><rect class="cls-3" x="925.54" y="605.33" width="38.9" height="10.66" rx="5.33" ry="5.33" transform="translate(-155.02 847.07) rotate(-45)"/><rect class="cls-3" x="960.68" y="578.39" width="22.5" height="10.66" rx="5.33" ry="5.33" transform="translate(-128.08 858.22) rotate(-45)"/><rect class="cls-3" x="1031.6" y="507.47" width="22.5" height="10.66" rx="5.33" ry="5.33" transform="translate(-57.16 887.6) rotate(-45)"/><rect class="cls-2" x="908.41" y="381.01" width="117.45" height="10.3" rx="1.69" ry="1.69"/><circle class="cls-4" cx="852.53" cy="357.18" r="34.13"/><rect class="cls-2" x="834.14" y="352.03" width="36.8" height="10.3" rx="1.69" ry="1.69"/><circle class="cls-4" cx="1081.74" cy="357.18" r="34.13"/><path class="cls-2" d="M1100.12,357.16a5.12,5.12,0,0,1-5.13,5.16h-8.11v8.11a5.14,5.14,0,1,1-10.28,0v-8.11h-8.11a5.14,5.14,0,1,1,0-10.28h8.11v-8.11a5.14,5.14,0,1,1,10.28,0V352H1095A5.12,5.12,0,0,1,1100.12,357.16Z"/><circle class="cls-4" cx="889.09" cy="965.35" r="27.96"/><circle class="cls-3" cx="889.09" cy="965.35" r="11.19"/><circle class="cls-4" cx="1045.18" cy="965.35" r="27.96"/><circle class="cls-3" cx="1045.18" cy="965.35" r="11.19"/><path class="cls-2" d="M1150.68,628.77h-28.47a9.16,9.16,0,0,0-8.88,6.95l-9.12,36.76H822.91l-0.17,0a22.32,22.32,0,0,0-1.86.23l-0.17,0c-0.21.05-.4,0.15-0.6,0.21a9.12,9.12,0,0,0-1,.34c-0.27.12-.51,0.27-0.76,0.41s-0.52.29-.77,0.47a9,9,0,0,0-.7.58c-0.22.19-.43,0.37-0.63,0.58s-0.38.45-.56,0.68-0.36.46-.52,0.7-0.28.5-.41,0.76a8.9,8.9,0,0,0-.39.81c-0.11.28-.19,0.58-0.27,0.87s-0.16.54-.21,0.82a9.12,9.12,0,0,0-.1,1c0,0.21-.06.41-0.06,0.62,0,0.06,0,.11,0,0.17a22.16,22.16,0,0,0,.23,1.86c0,0.06,0,.11,0,0.17L842.59,799c0.05,0.21.15,0.4,0.21,0.6a9,9,0,0,0,.34,1c0.12,0.27.27,0.51,0.41,0.76s0.29,0.53.47,0.77a9,9,0,0,0,.58.7c0.19,0.22.37,0.43,0.58,0.63s0.45,0.38.68,0.56,0.46,0.36.71,0.52,0.5,0.28.75,0.41a9,9,0,0,0,.81.39c0.28,0.11.57,0.18,0.86,0.27s0.55,0.16.83,0.22a9.1,9.1,0,0,0,1,.1c0.21,0,.42.06,0.63,0.06H1071.1l-18.59,75H874.6a9.15,9.15,0,0,0,0,18.3h185.07a9.16,9.16,0,0,0,8.88-6.95l60.81-245.23h21.31A9.15,9.15,0,0,0,1150.68,628.77ZM976.29,787.67V690.79h53L1011,787.67H976.29Zm-53,0L905,690.79h53v96.89H923.24Zm-64.61,0-24-96.89h51.73l18.28,96.89h-46Zm171,0,18.28-96.89h51.73l-24,96.89h-46Z"/><rect class="cls-2" x="807.46" y="1044.7" width="319.35" height="79.03" rx="39.51" ry="39.51"/><rect class="cls-3" x="827.07" y="1073.96" width="221.16" height="20.5" rx="10.25" ry="10.25"/><rect class="cls-3" x="1066.03" y="1073.96" width="41.18" height="20.5" rx="10.25" ry="10.25"/><rect class="cls-2" x="897.54" y="196.59" width="139.2" height="14.55" rx="6.87" ry="6.87"/><polygon class="cls-3" points="598.88 998.12 641.05 1030.92 627.33 1055.58 582.2 1030.66 598.88 998.12"/><path class="cls-1" d="M627.32,1057.87a2.27,2.27,0,0,1-1.1-.29l-45.13-24.92a2.29,2.29,0,0,1-.93-3l16.68-32.54a2.29,2.29,0,0,1,1.54-1.19,2.32,2.32,0,0,1,1.9.43l42.18,32.8a2.29,2.29,0,0,1,.59,2.92l-13.73,24.66A2.29,2.29,0,0,1,627.32,1057.87Zm-42.08-28.13,41.19,22.74,11.66-21-38.45-29.9Z"/><path class="cls-4" d="M702.32,1027.87v139.56a44.63,44.63,0,0,1-21.75-2.93,35.43,35.43,0,0,1-16-13.09c-3.36-5-8.11-13.18-13.36-22.6-15.47-28-35.08-67-35.08-67l19.46-38.93a308.36,308.36,0,0,1,45,1.53A211.64,211.64,0,0,1,702.32,1027.87Z"/><ellipse class="cls-3" cx="654.08" cy="1048.08" rx="17.73" ry="12.77"/><path class="cls-3" d="M702.32,1027.87v139.56a44.63,44.63,0,0,1-21.75-2.93V1024.42A211.64,211.64,0,0,1,702.32,1027.87Z"/><path class="cls-1" d="M697.38,1170a46.63,46.63,0,0,1-17.69-3.41,2.29,2.29,0,0,1-1.41-2.11V1024.42a2.29,2.29,0,0,1,2.53-2.28,213.46,213.46,0,0,1,22,3.49,2.29,2.29,0,0,1,1.81,2.24v139.56a2.29,2.29,0,0,1-1.93,2.26A37,37,0,0,1,697.38,1170Zm-14.52-7.08a43,43,0,0,0,17.17,2.42V1029.73c-5.47-1.12-11.23-2-17.17-2.74v136Z"/><path class="cls-3" d="M680.57,1119.17l21.75-7.14v55.4a44.63,44.63,0,0,1-21.75-2.93,35.43,35.43,0,0,1-16-13.09c-3.36-5-8.11-13.18-13.36-22.6Z"/><path class="cls-1" d="M697.38,1170a46.63,46.63,0,0,1-17.69-3.41,37.73,37.73,0,0,1-17-13.92c-3.07-4.57-7.6-12.23-13.46-22.77a2.29,2.29,0,0,1,1.29-3.29l29.35-9.64h0l21.75-7.14a2.31,2.31,0,0,1,2.06.32,2.29,2.29,0,0,1,.95,1.85v55.4a2.29,2.29,0,0,1-1.93,2.26A37,37,0,0,1,697.38,1170Zm-42.8-39.9c5.15,9.18,9.15,15.91,11.91,20a33.2,33.2,0,0,0,15,12.25,42.58,42.58,0,0,0,18.58,3v-50.17Z"/><path class="cls-4" d="M607.89,999.13l-25.44,47.8s-27.82-16-63.85-38.41c-42-26.2-95.27-61.22-128.58-90.14-16.81-14.58-27.21-26.33-26.57-32.61,0.55-5.25,5-17.57,12-34.35C408,773.82,494.62,601.56,494.62,601.56c28.46-65.59,100.15-46.76,108.29-12.2s-10.68,84.41-10.68,84.41L586,684.29l-29.25,49.27L473.27,874.06,580,973.26Z"/><path class="cls-1" d="M607.89,999.13l-25.44,47.8s-27.82-16-63.85-38.41L580,973.26Z"/><path class="cls-1" d="M586,684.29l-29.25,49.27,11.87-73.27C567.93,671.87,576.93,679.53,586,684.29Z"/><path class="cls-3" d="M390,918.38c-16.81-14.58-27.21-26.33-26.57-32.61,0.55-5.25,5-17.57,12-34.35,10.16,3.63,19.28,13.64,23.34,27C403.7,894.5,399.76,910.51,390,918.38Z"/><path class="cls-1" d="M579.91,1005.24a2.27,2.27,0,0,1-1.44-.51L426.32,880.93a2.29,2.29,0,0,1-.61-2.78l107.53-220.4a2.29,2.29,0,0,1,4.11,2L430.62,878.53l150.73,122.65A2.29,2.29,0,0,1,579.91,1005.24Z"/><path class="cls-1" d="M388.87,888.56a2.29,2.29,0,0,1-.36-4.55l75.25-12.2a2.29,2.29,0,1,1,.73,4.52l-75.25,12.2A2.22,2.22,0,0,1,388.87,888.56Z"/><line class="cls-3" x1="592.37" y1="993.55" x2="572.03" y2="1030.66"/><path class="cls-1" d="M572,1032.95a2.29,2.29,0,0,1-2-3.39l20.34-37.12a2.29,2.29,0,1,1,4,2.2L574,1031.76A2.28,2.28,0,0,1,572,1032.95Z"/><polygon class="cls-3" points="560.98 1148.62 554.37 1208.61 583.35 1219.55 598.09 1148.62 560.98 1148.62"/><path class="cls-1" d="M583.35,1221.83a2.29,2.29,0,0,1-.81-0.15l-29-10.93a2.29,2.29,0,0,1-1.47-2.39l6.61-60a2.29,2.29,0,0,1,2.27-2h37.11a2.29,2.29,0,0,1,2.24,2.75L585.59,1220A2.29,2.29,0,0,1,583.35,1221.83Zm-26.51-14.73,24.82,9.36,13.63-65.55H563Z"/><path class="cls-1" d="M587.41,686.72a2.29,2.29,0,0,1-1-.21l-7-3.22a22.6,22.6,0,0,1-13.13-20.48V618.33a2.29,2.29,0,0,1,4.58,0V662.8a18,18,0,0,0,10.46,16.32l7,3.22A2.29,2.29,0,0,1,587.41,686.72Z"/><path class="cls-4" d="M580.3,609.18l0.76,103.72-42.71,443.85,71.69,5.34s93-425.55,96.85-443.09,3.81-68.64,0-108.29S580.3,521.48,580.3,609.18Z"/><path class="cls-1" d="M551.26,1024.94H551a2.29,2.29,0,0,1-2.06-2.5l6.19-64.37a2.29,2.29,0,0,1,4.55.44l-6.19,64.37A2.29,2.29,0,0,1,551.26,1024.94Z"/><path class="cls-1" d="M706.89,721.29a2.29,2.29,0,0,1-2.24-2.77c3.74-17.2,3.72-68.48,0-107.59a2.29,2.29,0,0,1,4.55-.44c3.86,40.19,3.84,91.12,0,109A2.29,2.29,0,0,1,706.89,721.29Z"/><path class="cls-1" d="M629.51,1075.32a2.29,2.29,0,0,1-2.24-2.78l10.1-46.18a2.29,2.29,0,0,1,4.47,1l-10.1,46.18A2.29,2.29,0,0,1,629.51,1075.32Z"/><ellipse class="cls-3" cx="601.46" cy="891.23" rx="37.37" ry="28.41" transform="translate(-381.73 1326.41) rotate(-79.86)"/><path class="cls-1" d="M690.5,699.17a2.19,2.19,0,0,1-.52-0.06L680.72,697a22.21,22.21,0,0,1-17.3-21.74v-34a2.29,2.29,0,0,1,4.58,0v34a17.66,17.66,0,0,0,13.75,17.28l9.26,2.14A2.29,2.29,0,0,1,690.5,699.17Z"/><path class="cls-1" d="M603.94,1137.69a2.31,2.31,0,0,1-.45,0,2.29,2.29,0,0,1-1.8-2.69L688.59,697v-60.4a2.29,2.29,0,1,1,4.58,0v60.63a2.35,2.35,0,0,1,0,.45l-86.94,438.13A2.29,2.29,0,0,1,603.94,1137.69Z"/><path class="cls-1" d="M606.23,1149.64H606l-59-5.09a2.29,2.29,0,1,1,.39-4.56l59,5.09A2.29,2.29,0,0,1,606.23,1149.64Z"/><path class="cls-4" d="M590.46,1212.94l-44.56-12.46s-33.66,19.36-61.63,34.83c-9.43,5.25-17.6,10-22.6,13.36a35.43,35.43,0,0,0-13.09,16,44.63,44.63,0,0,0-2.93,21.75H589.93C592,1258.19,590.46,1212.94,590.46,1212.94Z"/><ellipse class="cls-3" cx="565" cy="1238.17" rx="12.77" ry="17.73"/><path class="cls-3" d="M448.58,1264.65a44.63,44.63,0,0,0-2.93,21.75H589.93c0.49-6.59.77-14.1,0.93-21.75H448.58Z"/><path class="cls-1" d="M589.93,1288.69H445.65a2.29,2.29,0,0,1-2.26-1.93,46.62,46.62,0,0,1,3.08-23,2.29,2.29,0,0,1,2.11-1.41H590.86a2.29,2.29,0,0,1,2.29,2.34c-0.17,8.45-.49,15.81-0.93,21.87A2.29,2.29,0,0,1,589.93,1288.69Zm-142.2-4.58H587.8c0.32-5,.57-10.72.72-17.17H450.14A43.44,43.44,0,0,0,447.73,1284.12Z"/><path class="cls-3" d="M493.91,1264.65L501,1286.4h-55.4a44.63,44.63,0,0,1,2.93-21.75,35.43,35.43,0,0,1,13.09-16c5-3.36,13.18-8.11,22.6-13.36Z"/><path class="cls-1" d="M501,1288.69h-55.4a2.29,2.29,0,0,1-2.26-1.93,46.62,46.62,0,0,1,3.08-23,37.7,37.7,0,0,1,13.92-17c4.6-3.08,12.26-7.61,22.77-13.46a2.29,2.29,0,0,1,3.29,1.28l9.64,29.35h0l7.14,21.75A2.29,2.29,0,0,1,501,1288.69Zm-53.32-4.58h50.16L483,1238.66c-9.16,5.14-15.89,9.14-20,11.91a33.18,33.18,0,0,0-12.25,15A42.94,42.94,0,0,0,447.73,1284.12Z"/><path class="cls-2" d="M529.83,468.09c-7.93,20.35-17.24,40.82-26,58.75-15.77,32.43-29.62,56.5-29.62,56.5l11.5,81.51-41.95,21.35c-24.4-36.61-39.66-90-39.66-90,16.78-125.84,70.16-226.5,70.16-226.5C515.46,342.26,552.07,410.9,529.83,468.09Z"/><path class="cls-1" d="M503.84,526.85c-15.77,32.43-29.62,56.5-29.62,56.5l7-95.24Z"/><path class="cls-1" d="M428,588.65a2.29,2.29,0,0,1-1.42-4.09c0.59-.46,14.71-11.23,41-3.43a2.29,2.29,0,1,1-1.3,4.39c-24-7.12-36.7,2.55-36.83,2.64A2.28,2.28,0,0,1,428,588.65Z"/><path class="cls-3" d="M461.07,631.81c-5.53,4.72,3.3,34.83,22.88,37.88S475.05,619.86,461.07,631.81Z"/><path class="cls-1" d="M485.51,672.1a12.43,12.43,0,0,1-1.91-.16c-12.75-2-21.81-14.72-25.13-26.45-2.07-7.29-1.65-13.06,1.12-15.43,2.3-2,7.28-4.45,14.79,1,10.49,7.6,21.47,27.93,17.8,36.82A6.69,6.69,0,0,1,485.51,672.1Zm-19.74-39.75a4.8,4.8,0,0,0-3.21,1.2h0c-0.88.76-1.4,4.68,0.31,10.7,2.93,10.33,10.69,21.5,21.44,23.17,2.92,0.45,3.41-.71,3.64-1.28,2.36-5.73-6.34-24.18-16.26-31.37C469.46,633.16,467.48,632.35,465.77,632.35Zm-4.7-.54h0Z"/><path class="cls-3" d="M452.17,646.55C444,647.87,423.7,679.6,427,690s30.4,24.19,42.2,5.85C485.22,671,464.88,644.52,452.17,646.55Z"/><path class="cls-1" d="M452.6,707.14a28.36,28.36,0,0,1-3.74-.26c-10.7-1.42-21.71-8.83-24-16.17-2.58-8.14,6.22-23.36,9-27.83,1.79-2.91,11.1-17.48,18-18.59h0c6.43-1,14.07,3.64,19.47,11.89a37.21,37.21,0,0,1-.15,40.92A21.19,21.19,0,0,1,452.6,707.14Zm1-58.41a6.62,6.62,0,0,0-1.07.08h0c-2.52.4-8.57,6.31-14.84,16.47-6.37,10.34-9.79,20-8.51,24,1.61,5.09,10.63,11.74,20.28,13,5.4,0.72,12.88,0,17.81-7.72a32.41,32.41,0,0,0,.17-35.94C463.51,652.65,458,648.73,453.6,648.73Zm-1.43-2.18h0Z"/><path class="cls-2" d="M716.83,587.61l8.36,39.87s-5.55,4.79-14.67,12c-16.9,13.36-46.09,35.14-75.32,50.49l-49.57-59.49-55.67,45.76s-33.56-35.08-51.1-70.16l19.07-33.56s-25.17-82.36-23.64-202.86c0,0,75.9-48,122.78-54.15s136.15,39.26,136.15,39.26L715.27,580.2Z"/><path class="cls-1" d="M725.18,627.48s-5.55,4.79-14.67,12L665.7,580.63l51.13,7Z"/><path class="cls-1" d="M489.55,540.07a2.29,2.29,0,0,1-2.24-1.83c-7-34.23-15.35-89.35-15.38-157.56a2.29,2.29,0,0,1,2.29-2.29h0a2.29,2.29,0,0,1,2.29,2.29c0,67.83,8.33,122.62,15.29,156.64A2.29,2.29,0,0,1,490,540,2.33,2.33,0,0,1,489.55,540.07Z"/><path class="cls-1" d="M585.12,615.81a2.29,2.29,0,0,1-2.29-2.29c0-133,8.69-245.15,8.78-246.27a2.29,2.29,0,1,1,4.56.36c-0.09,1.12-8.77,113.09-8.77,245.91A2.29,2.29,0,0,1,585.12,615.81Z"/><path class="cls-3" d="M638,341.74a51.33,51.33,0,0,1-31.57,29.93c-2.78-13.18-9.88-29.65-9.88-29.65-7.11,10.37-10.64,23.93-11.44,30.09-24.1-5.92-27.46-28.84-27.46-28.84,2.29-23.12,21.63-41,38.65-40.91C633.93,302.6,638,341.74,638,341.74Z"/><path class="cls-1" d="M585.12,374.39a2.34,2.34,0,0,1-.55-0.07c-25.3-6.21-29.14-30.48-29.18-30.73a2.33,2.33,0,0,1,0-.56c2.51-25.38,23.47-43,40.78-43h0.17c39.22,0.25,43.92,41,44,41.43a2.3,2.3,0,0,1-.15,1.08,53.86,53.86,0,0,1-33,31.24,2.29,2.29,0,0,1-3-1.69c-1.87-8.9-5.81-19.45-8.07-25.13a77.7,77.7,0,0,0-8.75,25.38A2.29,2.29,0,0,1,585.12,374.39ZM560,343.19c0.44,2.48,4.22,20,23.3,26,1.28-6.8,4.75-18.79,11.4-28.49a2.29,2.29,0,0,1,4,.39c0.28,0.64,6.37,14.82,9.44,27.5a49.09,49.09,0,0,0,27.58-27.18c-0.65-4.78-6.21-36.57-39.37-36.79C580.94,304.56,562.32,321,560,343.19Z"/><polygon class="cls-4" points="610.04 549.31 566.19 426.91 481.92 426.91 525.77 549.31 610.04 549.31"/><polygon class="cls-3" points="481.92 426.91 493.48 415.35 577.75 415.35 566.19 426.91 481.92 426.91"/><polygon class="cls-3" points="610.04 549.31 621.6 537.75 577.75 415.35 566.19 426.91 610.04 549.31"/><path class="cls-1" d="M566.19,429.2H489a2.29,2.29,0,0,1,0-4.58h76.21L573,416.9a2.29,2.29,0,0,1,3.24,3.24l-8.39,8.39A2.29,2.29,0,0,1,566.19,429.2Z"/><path class="cls-1" d="M589.51,494.29a2.29,2.29,0,0,1-2.15-1.52L564,427.68a2.29,2.29,0,1,1,4.31-1.54l23.32,65.09A2.29,2.29,0,0,1,589.51,494.29Z"/><path class="cls-2" d="M805.37,571.66c-0.61,16.63-5.4,29.13-16.87,33.71-15.83,6.35-30.78-2.44-44.29-18.18-22.21-26-40.42-71-51.8-98.5-18.3-44.23-28.95-85.42-16.41-115.16,13.36-31.63,57.23-18.7,57.23-18.7s17.91,22.51,33.92,66.75C778.8,453.73,807,527.37,805.37,571.66Z"/><path class="cls-1" d="M744.2,589.48a2.29,2.29,0,0,1-1.74-.8C720.67,563.16,703,520.35,691.3,492l-1-2.45c-22.5-54.39-27.56-90.45-16.4-116.92,6.13-14.52,19.35-22.37,38.23-22.71a2.34,2.34,0,0,1,2.33,2.25,2.29,2.29,0,0,1-2.25,2.33c-17.17.3-28.65,7-34.1,19.91-10.5,24.91-5.28,60.94,16.42,113.39l1,2.45c11.58,28.07,29.09,70.48,50.41,95.44A2.29,2.29,0,0,1,744.2,589.48Z"/><path class="cls-3" d="M805.37,571.66c-0.61,16.63-5.4,29.13-16.87,33.71-15.83,6.35-30.78-2.44-44.29-18.18A35.09,35.09,0,0,1,805.37,571.66Z"/><path class="cls-2" d="M788.5,605.37c-11.62,6.41-25.11,8.66-39.32,8.05-61.86-2.56-138-58.78-138-58.78l13.73-33.56s58.45-2.47,95.18-1.62c24.71,0.58,57,15.62,68.79,41.3C794.66,573.25,795.6,588.29,788.5,605.37Z"/><path class="cls-1" d="M721.36,611.47a2.28,2.28,0,0,1-.55-0.07c-54.52-13.55-110.41-54.52-111-54.93a2.29,2.29,0,0,1-.76-2.71l13.73-33.56a2.29,2.29,0,0,1,2-1.42c0.59,0,58.95-2.45,95.33-1.62,19.51,0.46,41.56,9.46,56.17,22.94a2.29,2.29,0,0,1-3.1,3.36c-13.84-12.76-34.71-21.29-53.18-21.72-33-.78-84.27,1.18-93.56,1.56L614,553.84c9.05,6.44,59.12,41,107.91,53.13A2.29,2.29,0,0,1,721.36,611.47Z"/><path class="cls-3" d="M788.5,605.37c-11.62,6.41-25.11,8.66-39.32,8.05a35.07,35.07,0,0,1,39.72-52.65C794.66,573.25,795.6,588.29,788.5,605.37Z"/><path class="cls-1" d="M641.12,568.76a2.29,2.29,0,0,1-1.51-4c16.15-14.22,7.1-38,7-38.25a2.29,2.29,0,0,1,4.26-1.67c0.43,1.1,10.28,27-8.25,43.35A2.28,2.28,0,0,1,641.12,568.76Z"/><circle class="cls-3" cx="631.58" cy="554.26" r="4.95"/><path class="cls-1" d="M631.58,561.5a7.24,7.24,0,1,1,7.24-7.24A7.25,7.25,0,0,1,631.58,561.5Zm0-9.9a2.66,2.66,0,1,0,2.66,2.66A2.67,2.67,0,0,0,631.58,551.6Z"/><path class="cls-3" d="M628.09,528.34S621,494,616.14,487.16c-4-5.69-40.29,0-52.62,2.08a4.9,4.9,0,0,0-4.07,4.84h0A4.91,4.91,0,0,0,564,499l19.9,1.66-17,4.09a8.35,8.35,0,0,0-6.3,9.38c1.25,8.13,3.21,20.13,4.21,22.11,1.53,3.05,26.18,0,26.18,0s1.08,20.34,12.74,21.61S630.38,548.17,628.09,528.34Z"/><path class="cls-1" d="M605.62,560.22a19.94,19.94,0,0,1-2.15-.12c-10.91-1.19-13.81-15.49-14.55-21.33-24,2.77-25.58-.34-26.18-1.53-0.36-.73-1.33-2.66-4.42-22.79a10.7,10.7,0,0,1,8-12l3.18-.77-5.76-.48a7.2,7.2,0,0,1-.63-14.27c33-5.64,51.44-6,54.87-1.14,5,7,11.58,38.47,12.32,42,0,0.07,0,.13,0,0.2,1.12,9.75-1.64,18.52-7.77,24.7A24.34,24.34,0,0,1,605.62,560.22ZM591,533.93a2.29,2.29,0,0,1,2.29,2.17c0,0.18,1.27,18.43,10.7,19.46,5.25,0.57,11.13-1.73,15.38-6,5.12-5.15,7.42-12.55,6.49-20.85-2-9.5-7.83-34.94-11.56-40.23-1.51-2-16.16-2.83-50.36,3a2.61,2.61,0,0,0-2.17,2.59,2.64,2.64,0,0,0,2.41,2.62l19.9,1.66a2.29,2.29,0,0,1,.35,4.5l-17,4.09a6.1,6.1,0,0,0-4.58,6.81c2.4,15.63,3.48,19.92,3.86,21.08,2.59,0.93,14.22.32,24-.88Z"/><path class="cls-3" d="M614,258.93l0.88,22.85,1.5,39.09c-12.53,10-25.24,11.82-38.15,3.38L578.85,306l0.95-27.63Z"/><path class="cls-1" d="M594.78,331.91q-9,0-17.81-5.75a2.29,2.29,0,0,1-1-2l1.57-45.88a2.28,2.28,0,0,1,1.16-1.91l34.2-19.44a2.29,2.29,0,0,1,3.42,1.9l2.38,61.94a2.29,2.29,0,0,1-.86,1.87C610.09,328.82,602.39,331.91,594.78,331.91ZM580.55,323c11,6.68,22,5.62,33.49-3.22l-2.19-57L582,279.72Z"/><path class="cls-1" d="M602.18,265.64c0.49,10.32,3.71,45.35-23.7,50.94l1.31-38.21Z"/><path class="cls-3" d="M545,266.22c3.71,18.53,11.32,40.39,33.44,34.72,26.29-6.74,41.72-27.3,39.49-52.73s-15.34-38.62-45.48-32.74a46.9,46.9,0,0,0-7.53,2.11c-17,6.42-24.44,21.79-21.69,38.71C543.71,259.34,544.27,262.72,545,266.22Z"/><path class="cls-1" d="M571.65,304.14a21.25,21.25,0,0,1-11.87-3.46c-12-7.88-16-26.86-18.82-44-3.52-21.67,9-39.13,31-43.43a2.29,2.29,0,1,1,.88,4.49c-19.79,3.86-30.55,18.85-27.4,38.21,1.9,11.71,5.44,33.5,16.81,40.94,4.33,2.84,9.43,3.45,15.57,1.87,9.8-2.51,18-6.95,24.47-13.18a2.29,2.29,0,0,1,3.18,3.29A59.1,59.1,0,0,1,579,303.16,29.56,29.56,0,0,1,571.65,304.14Z"/><path class="cls-1" d="M628.4,250.75a79.1,79.1,0,0,1-7.69,11.38l-12,2.17-3-9.27s-11,.4-13.33-5.25a3.39,3.39,0,0,1-.15-0.4c-0.64-1.86-3.23-10.19-3.23-23.52,0,0-19.83,11.16-31,13.45-4,.83-8.9-0.27-13.52-2-9.25-3.5-18.37-17.14-17.78-27v-0.19c1-14.49,9.43-5.34,9.43-5.34s1-11.68,8.11-13.21S557,200.17,557,200.17a113.76,113.76,0,0,1,41.93-5.86c28.2,1.54,23.15,21.35,23.15,21.35S643.14,220.25,628.4,250.75Z"/><path class="cls-3" d="M604.82,252.54s10.44-14.42,23.93-12.15,13,33.22-19.37,34Z"/><path class="cls-1" d="M609.37,276.69a2.29,2.29,0,0,1-2.24-1.82L602.58,253a2.29,2.29,0,0,1,.39-1.81c0.46-.64,11.42-15.54,26.16-13.07,6.49,1.09,10.78,7.73,10.21,15.79-0.78,11-10.33,22.28-29.91,22.77h-0.06Zm-2.1-23.57L611.21,272c16.45-1.07,23-10.47,23.55-18.43,0.4-5.66-2.29-10.26-6.4-11C618.18,240.92,609.58,250.32,607.27,253.12Z"/><circle class="cls-4" cx="327.73" cy="165.72" r="31.27"/><path class="cls-3" d="M312.23,166.15l12.49,12.49a7.63,7.63,0,0,0,10.79,0l42.8-42.8a7.63,7.63,0,0,0-10.78-10.79l-37.41,37.41-7.1-7.1a7.63,7.63,0,1,0-10.78,10.79h0Z"/><path class="cls-1" d="M330.11,183.16a10,10,0,0,1-7-2.9l-12.49-12.49a9.91,9.91,0,0,1,14-14l5.48,5.48,35.79-35.79a9.91,9.91,0,1,1,14,14l-42.8,42.8A10,10,0,0,1,330.11,183.16Zm-12.49-27.74a5.34,5.34,0,0,0-3.77,9.11h0L326.33,177a5.52,5.52,0,0,0,7.55,0l42.8-42.8a5.34,5.34,0,1,0-7.55-7.55l-37.41,37.41a2.29,2.29,0,0,1-1.62.67h0a2.29,2.29,0,0,1-1.62-.67L321.4,157A5.33,5.33,0,0,0,317.62,155.42Z"/><rect class="cls-2" x="378.7" y="154.98" width="107.02" height="15.38" rx="7.69" ry="7.69"/><circle class="cls-4" cx="327.73" cy="243.33" r="31.27"/><path class="cls-3" d="M312.23,243.76l12.49,12.49a7.63,7.63,0,0,0,10.79,0l42.8-42.8a7.63,7.63,0,0,0-10.78-10.79l-37.41,37.41L323,233a7.63,7.63,0,1,0-10.78,10.79h0Z"/><path class="cls-1" d="M330.11,260.77a10,10,0,0,1-7-2.9l-12.49-12.49a9.91,9.91,0,0,1,14-14l5.48,5.48L365.9,201a9.91,9.91,0,1,1,14,14l-42.8,42.8A10,10,0,0,1,330.11,260.77ZM317.62,233a5.34,5.34,0,0,0-3.77,9.11h0l12.49,12.49a5.53,5.53,0,0,0,7.55,0l42.8-42.8a5.34,5.34,0,0,0-7.55-7.55l-37.41,37.41a2.29,2.29,0,0,1-1.62.67h0a2.29,2.29,0,0,1-1.62-.67l-7.09-7.1A5.33,5.33,0,0,0,317.62,233Z"/><rect class="cls-2" x="378.7" y="232.59" width="107.02" height="15.38" rx="7.69" ry="7.69"/><path class="cls-2" d="M362.11,346.07l4.76-.33a10.13,10.13,0,0,0,9.39-9.39l0.33-4.76,0.33,4.76a10.13,10.13,0,0,0,9.39,9.39l4.76,0.33-4.76.33a10.13,10.13,0,0,0-9.39,9.39l-0.33,4.76-0.33-4.76a10.13,10.13,0,0,0-9.39-9.39Z"/><path class="cls-2" d="M849.13,92.17l7-.49A14.92,14.92,0,0,0,870,77.83l0.49-7,0.49,7a14.92,14.92,0,0,0,13.85,13.85l7,0.49-7,.49A14.92,14.92,0,0,0,871,106.51l-0.49,7-0.49-7a14.92,14.92,0,0,0-13.85-13.85Z"/><path class="cls-2" d="M282.61,601.12l5.31-.37a11.29,11.29,0,0,0,10.47-10.47l0.37-5.31,0.37,5.31a11.29,11.29,0,0,0,10.47,10.47l5.31,0.37-5.31.37A11.29,11.29,0,0,0,299.14,612l-0.37,5.31L298.39,612a11.29,11.29,0,0,0-10.47-10.47Z"/><path class="cls-2" d="M431.32,1060.85l5.31-.37A11.29,11.29,0,0,0,447.1,1050l0.37-5.31,0.37,5.31a11.29,11.29,0,0,0,10.47,10.47l5.31,0.37-5.31.37a11.29,11.29,0,0,0-10.47,10.47l-0.37,5.31-0.37-5.31a11.29,11.29,0,0,0-10.47-10.47Z"/><circle class="cls-4" cx="360.33" cy="643.47" r="4.86"/><circle class="cls-4" cx="306.7" cy="432.82" r="14.3"/><circle class="cls-4" cx="406.8" cy="1124.88" r="14.3"/><circle class="cls-4" cx="682.93" cy="122.82" r="12.39"/></svg>