<svg id="COMPUTER" xmlns="http://www.w3.org/2000/svg" viewBox="0 0 1600 1400"><defs><style>.cls-1{fill:#fff;}.cls-2{fill:#262424;}.cls-3{fill:#ff9f1c;}.cls-4{fill:#0b132b;}.cls-5{fill:#ff9f1c;}</style></defs><title>Logo design</title><path class="cls-1" d="M1158.42,864h-95.84L992.71,708H1003l41.65,93,2.38,5.31a6.5,6.5,0,0,0,5.93,3.84h10.12A6.49,6.49,0,0,0,1069,801l-41.65-93h61.22Z"/><path class="cls-2" d="M1158.42,866.5h-95.84a2.5,2.5,0,0,1-2.28-1.48L990.43,709a2.5,2.5,0,0,1,2.28-3.52H1003a2.5,2.5,0,0,1,2.28,1.48l44,98.32a4,4,0,0,0,3.65,2.36h10.12a4,4,0,0,0,3.64-5.63L1025,709a2.5,2.5,0,0,1,2.28-3.52h61.22a2.5,2.5,0,0,1,2.28,1.48l69.87,156A2.5,2.5,0,0,1,1158.42,866.5Zm-94.22-5h90.36l-67.63-151h-55.74L1071.26,800a9,9,0,0,1-8.2,12.67h-10.12a9,9,0,0,1-8.21-5.32l-43.37-96.84h-4.79Z"/><polygon class="cls-1" points="1133.76 864 1037.91 864 968.05 708 1002.98 708 1004.1 710.5 1028.45 710.5 1027.33 708 1063.89 708 1133.76 864"/><path class="cls-2" d="M1136,863l-69.87-156a2.49,2.49,0,0,0-2.28-1.48H968a2.5,2.5,0,0,0-2.28,3.52l69.86,156a2.49,2.49,0,0,0,2.28,1.48h95.85A2.5,2.5,0,0,0,1136,863Zm-96.51-1.48-67.62-151h90.36l67.63,151h-90.37Z"/><rect class="cls-1" x="861.58" y="858.33" width="335.33" height="29.33" rx="14.67" ry="14.67"/><path class="cls-2" d="M1182.25,890.17h-306a17.17,17.17,0,0,1,0-34.33h306A17.17,17.17,0,0,1,1182.25,890.17Zm-306-29.33a12.17,12.17,0,0,0,0,24.33h306a12.17,12.17,0,0,0,0-24.33h-306Z"/><rect class="cls-1" x="1021.41" y="858.33" width="175.5" height="29.33" rx="14.67" ry="14.67"/><path class="cls-2" d="M1182.25,890.17H1036.08a17.17,17.17,0,0,1,0-34.33h146.17A17.17,17.17,0,0,1,1182.25,890.17Zm-146.17-29.33a12.17,12.17,0,0,0,0,24.33h146.17a12.17,12.17,0,0,0,0-24.33H1036.08Z"/><rect class="cls-1" x="642.82" y="188.62" width="760.46" height="524.97" rx="21.91" ry="21.91"/><path class="cls-2" d="M1381.37,716.09H664.73a24.44,24.44,0,0,1-24.41-24.41V210.53a24.44,24.44,0,0,1,24.41-24.41h716.64a24.44,24.44,0,0,1,24.41,24.41V691.68A24.44,24.44,0,0,1,1381.37,716.09Zm-716.64-525a19.43,19.43,0,0,0-19.41,19.41V691.68a19.44,19.44,0,0,0,19.41,19.41h716.64a19.44,19.44,0,0,0,19.41-19.41V210.53a19.44,19.44,0,0,0-19.41-19.41H664.73Z"/><rect class="cls-1" x="621.17" y="188.62" width="760.46" height="524.97" rx="21.91" ry="21.91"/><path class="cls-2" d="M1359.72,716.09H643.08a24.44,24.44,0,0,1-24.41-24.41V210.53a24.44,24.44,0,0,1,24.41-24.41h716.64a24.44,24.44,0,0,1,24.41,24.41V691.68A24.44,24.44,0,0,1,1359.72,716.09Zm-716.64-525a19.43,19.43,0,0,0-19.41,19.41V691.68a19.44,19.44,0,0,0,19.41,19.41h716.64a19.44,19.44,0,0,0,19.41-19.41V210.53a19.44,19.44,0,0,0-19.41-19.41H643.08Z"/><rect class="cls-1" x="646.17" y="213.62" width="710.46" height="474.97" rx="5.91" ry="5.91"/><path class="cls-2" d="M1350.72,691.09H652.08a8.42,8.42,0,0,1-8.41-8.41V219.53a8.42,8.42,0,0,1,8.41-8.41h698.64a8.42,8.42,0,0,1,8.41,8.41V682.68A8.42,8.42,0,0,1,1350.72,691.09Zm-698.64-475a3.41,3.41,0,0,0-3.41,3.41V682.68a3.41,3.41,0,0,0,3.41,3.41h698.64a3.41,3.41,0,0,0,3.41-3.41V219.53a3.41,3.41,0,0,0-3.41-3.41H652.08Z"/><path class="cls-1" d="M1356.63,619v63.68a5.92,5.92,0,0,1-5.91,5.91H652.08a5.92,5.92,0,0,1-5.91-5.91V619h710.46Z"/><path class="cls-2" d="M1350.72,691.09H652.08a8.42,8.42,0,0,1-8.41-8.41V619a2.5,2.5,0,0,1,2.5-2.5h710.46a2.5,2.5,0,0,1,2.5,2.5v63.68A8.42,8.42,0,0,1,1350.72,691.09Zm-702-69.59v61.18a3.41,3.41,0,0,0,3.41,3.41h698.64a3.41,3.41,0,0,0,3.41-3.41V621.5H648.67Z"/><path class="cls-1" d="M1356.63,219.53V245H646.17V219.53a5.91,5.91,0,0,1,5.91-5.91h698.64A5.91,5.91,0,0,1,1356.63,219.53Z"/><path class="cls-2" d="M1356.63,247.5H646.17a2.5,2.5,0,0,1-2.5-2.5V219.53a8.42,8.42,0,0,1,8.41-8.41h698.64a8.42,8.42,0,0,1,8.41,8.41V245A2.5,2.5,0,0,1,1356.63,247.5Zm-708-5h705.46v-23a3.41,3.41,0,0,0-3.41-3.41H652.08a3.41,3.41,0,0,0-3.41,3.41v23Z"/><path class="cls-1" d="M1356.63,245V682.68a5.92,5.92,0,0,1-5.91,5.91H1150.64V245h206Z"/><path class="cls-2" d="M1350.72,691.09H1150.64a2.5,2.5,0,0,1-2.5-2.5V245a2.5,2.5,0,0,1,2.5-2.5h206a2.5,2.5,0,0,1,2.5,2.5V682.68A8.42,8.42,0,0,1,1350.72,691.09Zm-197.58-5h197.58a3.41,3.41,0,0,0,3.41-3.41V247.5h-201V686.09Z"/><rect class="cls-3" x="1182.3" y="269.67" width="142.67" height="253.33" rx="9" ry="9"/><rect class="cls-4" x="1182.3" y="583.58" width="142.67" height="18" rx="9" ry="9"/><rect class="cls-4" x="1182.3" y="616.42" width="142.67" height="18" rx="9" ry="9"/><rect class="cls-1" x="646.17" y="609" width="504.47" height="20"/><path class="cls-2" d="M1150.64,631.5H646.17a2.5,2.5,0,0,1-2.5-2.5V609a2.5,2.5,0,0,1,2.5-2.5h504.47a2.5,2.5,0,0,1,2.5,2.5v20A2.5,2.5,0,0,1,1150.64,631.5Zm-502-5h499.47v-15H648.67v15Z"/><path class="cls-4" d="M851.58,604.5h93.66a2.88,2.88,0,0,1,2.88,2.88v23.25a2.88,2.88,0,0,1-2.87,2.88H851.58a2.87,2.87,0,0,1-2.87-2.87V607.38A2.88,2.88,0,0,1,851.58,604.5Z"/><polygon class="cls-4" points="1042.53 545 966.51 545 933.18 490.42 863.62 490.42 830.29 545 754.27 545 860.39 371.23 898.4 309 936.41 371.23 898.4 433.47 974.42 433.47 1009.2 490.42 1042.53 545"/><polygon class="cls-1" points="334.38 1137.38 293.76 1203.02 275.5 1172.21 306.09 1114.66 334.38 1137.38"/><path class="cls-2" d="M293.76,1205.52h0a2.5,2.5,0,0,1-2.13-1.23l-18.26-30.82a2.5,2.5,0,0,1-.06-2.45l30.59-57.55a2.5,2.5,0,0,1,3.77-.78l28.3,22.72a2.5,2.5,0,0,1,.56,3.26l-40.62,65.64A2.5,2.5,0,0,1,293.76,1205.52Zm-15.39-33.38,15.44,26.06,37.29-60.25-24.22-19.45Z"/><path class="cls-4" d="M398.05,1233.45c-3.8-3.46-12.89-9.63-16.32-13.38A466,466,0,0,1,330.65,1153l-57.43,3.76c-1.79,38.24-1,74.12-.27,94.89,0.42,11.57.86,18.45,0.86,18.45H409.5v-13.18C409.5,1248.35,405.36,1240.11,398.05,1233.45Z"/><ellipse class="cls-1" cx="289.26" cy="1209.75" rx="8.91" ry="16.1"/><path class="cls-1" d="M409.5,1256.92v13.18H273.81s-0.44-6.88-.87-18.45H389.33s0.61-14.93-3-27.52c4,3.28,9.16,6.94,11.77,9.32C405.36,1240.11,409.5,1248.35,409.5,1256.92Z"/><path class="cls-2" d="M409.5,1272.6H273.81a2.5,2.5,0,0,1-2.5-2.34c0-.07-0.45-7-0.87-18.52a2.5,2.5,0,0,1,2.5-2.59H386.87c0-4.64-.33-15.2-3-24.32a2.5,2.5,0,0,1,4-2.64c1.61,1.31,3.41,2.69,5.15,4,2.62,2,5.1,3.91,6.73,5.4,7.91,7.21,12.27,16.2,12.27,25.32v13.18A2.5,2.5,0,0,1,409.5,1272.6Zm-133.33-5H407v-10.68c0-7.7-3.78-15.37-10.63-21.62-1.41-1.29-3.66-3-6.06-4.86a109.16,109.16,0,0,1,1.53,21.32,2.5,2.5,0,0,1-2.5,2.4H275.54C275.78,1260.37,276,1265,276.17,1267.6Z"/><path class="cls-4" d="M459,1037.26q-1.39,1.6-2.93,3.12L342.88,1153l-58.55-27.33,75.34-133.34s-96-136-101.34-162.66S243.67,670.33,309,670.33s76.33,87.34,76.33,87.34L466.86,961.6l3.66,9.16A64.44,64.44,0,0,1,459,1037.26Z"/><path class="cls-1" d="M330.33,771.25V811a12.23,12.23,0,0,1-6.06,10.56l-23.44,13.71-23.44-13.71A12.23,12.23,0,0,1,271.33,811V771.25h59Z"/><path class="cls-2" d="M340.81,1118.5a2.5,2.5,0,0,1-2-4l88.7-119.1-72.33-185a2.5,2.5,0,0,1,4.66-1.82l72.83,186.28a2.5,2.5,0,0,1-.32,2.4l-89.53,120.22A2.5,2.5,0,0,1,340.81,1118.5Z"/><path class="cls-2" d="M345.83,1140.83a2.49,2.49,0,0,1-1.07-.24l-48.86-23.08A2.5,2.5,0,0,1,298,1113l48.86,23.08A2.5,2.5,0,0,1,345.83,1140.83Z"/><path class="cls-2" d="M422.34,998.28h-0.15L366.89,995a2.5,2.5,0,0,1,.29-5l55.3,3.24A2.5,2.5,0,0,1,422.34,998.28Z"/><path class="cls-1" d="M459,1037.26c-10.29-7-17.26-20.45-17.26-35.93,0-19.13,10.66-35.21,25.07-39.73l3.66,9.16A64.44,64.44,0,0,1,459,1037.26Z"/><polygon class="cls-1" points="813.02 1110.5 866.33 1166.33 832 1176.33 784 1132.25 813.02 1110.5"/><path class="cls-2" d="M832,1178.83a2.5,2.5,0,0,1-1.69-.66l-48-44.08a2.5,2.5,0,0,1,.19-3.84l29-21.75a2.5,2.5,0,0,1,3.31.27l53.31,55.83a2.5,2.5,0,0,1-1.11,4.13l-34.33,10A2.49,2.49,0,0,1,832,1178.83Zm-44.09-46.39,44.74,41.09,29-8.46-48.93-51.25Z"/><path class="cls-4" d="M931.44,1233.45c-3.8-3.46-12.89-9.63-16.32-13.38-26.56-29-48.14-62.22-55.61-74.17l-52.91,10.86c-1.79,38.24-1,74.12-.27,94.89,0.42,11.57.86,18.45,0.86,18.45H942.89v-13.18C942.89,1248.35,938.74,1240.11,931.44,1233.45Z"/><ellipse class="cls-1" cx="822.64" cy="1209.75" rx="8.91" ry="16.1"/><path class="cls-1" d="M942.89,1256.92v13.18H807.19s0-.43-0.07-1.26c-0.07-1-.16-2.68-0.26-4.88,0-.44,0-0.9-0.07-1.39s0-1-.07-1.51c-0.12-2.63-.26-5.79-0.39-9.41H922.72s0.61-14.92-3-27.51c0.18,0.15.36,0.3,0.55,0.44l0.22,0.17c1.63,1.31,3.39,2.65,5.07,3.93l0.59,0.45,1.12,0.87c1.66,1.29,3.15,2.48,4.22,3.45a41.8,41.8,0,0,1,3.77,3.9,32.73,32.73,0,0,1,6.72,12.45c0.07,0.26.14,0.51,0.2,0.78q0.18,0.78.33,1.56A26.47,26.47,0,0,1,942.89,1256.92Z"/><path class="cls-2" d="M942.89,1272.6H807.19a2.5,2.5,0,0,1-2.49-2.32s0-.45-0.07-1.32-0.16-2.66-.26-4.89v-0.22c0-.36,0-0.74-0.06-1.13v-0.31c0-.39,0-0.8-0.06-1.21-0.12-2.67-.26-5.84-0.39-9.47a2.5,2.5,0,0,1,2.5-2.59H920.25c0-4.64-.33-15.19-3-24.31a2.5,2.5,0,0,1,4-2.62l0.44,0.35c0.08,0.06.23,0.17,0.36,0.28,1.53,1.23,3.25,2.54,4.92,3.81l0.61,0.46,1.13,0.88c2.11,1.64,3.42,2.71,4.39,3.59a44.64,44.64,0,0,1,4,4.14,35.1,35.1,0,0,1,7.22,13.41l0,0.12c0.07,0.26.14,0.51,0.2,0.78,0.12,0.53.24,1.08,0.34,1.63a29.06,29.06,0,0,1,.47,5.25v13.18A2.5,2.5,0,0,1,942.89,1272.6Zm-133.34-5H940.39v-10.68a24.05,24.05,0,0,0-.39-4.33c-0.09-.47-0.19-1-0.31-1.45,0-.21-0.1-0.39-0.14-0.57l0-.12A30.12,30.12,0,0,0,933.3,1239a39.44,39.44,0,0,0-3.54-3.67c-1.1-1-2.75-2.3-4.07-3.32l-1.13-.88-0.59-.45-0.27-.21a109.08,109.08,0,0,1,1.53,21.32,2.5,2.5,0,0,1-2.5,2.4H808.93c0.1,2.54.2,4.82,0.29,6.8,0,0.41,0,.85.06,1.26v0.25c0,0.38,0,.78.06,1.16v0.22C809.43,1265.37,809.49,1266.63,809.55,1267.6Z"/><path class="cls-4" d="M821,1107l-44.67,39.33s-128-74-145.33-87.33-50-57.33-50-57.33S397,875.67,365.67,843c-17.45-18.19-22.08-53.88-22.76-81.94-1.19-49.08,37.9-90,87-90.71l2.43,0c78.67,0,84,105.34,84,105.34l130.5,141.92,54.42,59.18Z"/><path class="cls-2" d="M435.16,901a2.49,2.49,0,0,1-1.48-.49c-37-27.28-60.5-46-69.81-55.75-17.8-18.55-22.54-54.46-23.39-81.32a2.5,2.5,0,1,1,5-.16c0.82,26,5.3,60.61,22,78,9.12,9.51,32.39,28.08,69.17,55.18A2.5,2.5,0,0,1,435.16,901Z"/><path class="cls-1" d="M701.25,976.77c-0.25.27-.51,0.53-0.77,0.79-11.48,11.17-33.38,7.3-48.92-8.66s-18.84-37.95-7.37-49.13a20.93,20.93,0,0,1,2.64-2.18Z"/><path class="cls-2" d="M778,1113a2.49,2.49,0,0,1-1.47-.48l-81.42-59.31a253.1,253.1,0,0,1-59.45-61l-5.24-7.59L462.59,821.46a2.5,2.5,0,0,1-.76-1.79V779a2.5,2.5,0,0,1,5,0v39.61l167.24,162.6a2.52,2.52,0,0,1,.31.37l5.38,7.79A248.13,248.13,0,0,0,698,1049.17l81.42,59.31A2.5,2.5,0,0,1,778,1113Z"/><path class="cls-2" d="M769.5,1134.75a2.5,2.5,0,0,1-1.68-4.36l36-32.5a2.5,2.5,0,1,1,3.35,3.71l-36,32.5A2.49,2.49,0,0,1,769.5,1134.75Z"/><path class="cls-1" d="M439,771.25V811a12.23,12.23,0,0,1-6.06,10.56L409.5,835.25l-23.44-13.71A12.23,12.23,0,0,1,380,811V771.25h59Z"/><polygon class="cls-1" points="113.5 649.25 88.25 703 147.75 721.25 149.75 658.25 113.5 649.25"/><path class="cls-2" d="M147.75,723.75a2.48,2.48,0,0,1-.73-0.11l-59.5-18.25A2.5,2.5,0,0,1,86,701.94l25.25-53.75a2.5,2.5,0,0,1,2.87-1.36l36.25,9a2.5,2.5,0,0,1,1.9,2.51l-2,63A2.5,2.5,0,0,1,147.75,723.75Zm-56-22.29,53.62,16.45,1.83-57.71-32.3-8Z"/><path class="cls-1" d="M131,682.81l-19.53-6a12.25,12.25,0,0,0-14.46,6l-9.56,18.13a12.25,12.25,0,0,0-.63,10h0a12.25,12.25,0,0,0,7.6,7.31L119,726.4a12.25,12.25,0,0,0,13.19-3.68l2.89-3.39a12.25,12.25,0,0,0,2.87-6.8l1.58-16.87A12.25,12.25,0,0,0,131,682.81Z"/><path class="cls-2" d="M122.93,729.53a14.82,14.82,0,0,1-4.68-.76l-24.62-8.18a14.75,14.75,0,0,1-8.4-20.88l9.56-18.13a14.76,14.76,0,0,1,17.41-7.21l19.53,6a14.82,14.82,0,0,1,10.32,15.47l-1.58,16.87a14.68,14.68,0,0,1-3.46,8.18l-2.89,3.39A14.69,14.69,0,0,1,122.93,729.53Zm-15.08-50.82a9.76,9.76,0,0,0-8.63,5.2L89.66,702a9.75,9.75,0,0,0,5.55,13.8L119.83,724a9.71,9.71,0,0,0,10.5-2.93l2.89-3.39a9.7,9.7,0,0,0,2.28-5.41l1.58-16.87a9.79,9.79,0,0,0-6.82-10.23h0l-19.53-6A9.73,9.73,0,0,0,107.85,678.71Z"/><path class="cls-1" d="M145.45,688.31h0a8.6,8.6,0,0,1,6.67,7.9L153,712.54A17.13,17.13,0,0,1,147.7,726l-3.78,3.57a8.6,8.6,0,0,1-8.72,1.87l-1-.35a8.6,8.6,0,0,1-5-4.49l-1.12-2.39a17.13,17.13,0,0,1,0-14.38l7.66-16.69A8.6,8.6,0,0,1,145.45,688.31Z"/><path class="cls-2" d="M138,734.4a11.13,11.13,0,0,1-3.65-.62l-1-.35a11.16,11.16,0,0,1-6.43-5.8l-1.12-2.39a19.6,19.6,0,0,1-.05-16.48l7.66-16.69A11.14,11.14,0,0,1,146,685.87h0a11.16,11.16,0,0,1,8.61,10.19l0.93,16.33a19.59,19.59,0,0,1-6.12,15.39l-3.78,3.57A11.07,11.07,0,0,1,138,734.4Zm5.51-43.8a6.13,6.13,0,0,0-5.56,3.56l-7.66,16.69a14.6,14.6,0,0,0,0,12.28l1.12,2.4a6.14,6.14,0,0,0,3.53,3.19l1,0.35a6.08,6.08,0,0,0,6.19-1.33l3.78-3.57a14.59,14.59,0,0,0,4.56-11.47l-0.93-16.33a6.13,6.13,0,0,0-4.73-5.6h0A6,6,0,0,0,143.54,690.59Z"/><path class="cls-1" d="M149.75,658.25l8.37,38a10.07,10.07,0,0,1-3.1,9.65h0a10.07,10.07,0,0,1-10,2l-24.19-8.26a6.93,6.93,0,0,1-4.47-8.31h0a6.93,6.93,0,0,1,6.82-5.18l10.43,0.16-7-12.55a6.93,6.93,0,0,1,.3-7.22l8.27-12.36Z"/><path class="cls-2" d="M148.28,711a12.56,12.56,0,0,1-4.06-.67L120,702.07A9.47,9.47,0,0,1,114,690.76a9.36,9.36,0,0,1,9.28-7.05l6.11,0.1L124.49,675a9.4,9.4,0,0,1,.41-9.82l8.27-12.36a2.5,2.5,0,0,1,2.74-1l14.5,4a2.5,2.5,0,0,1,1.78,1.87l8.37,38A12.56,12.56,0,0,1,148.28,711Zm-25.2-22.29a4.43,4.43,0,0,0-1.43,8.63l24.19,8.26a7.57,7.57,0,0,0,9.84-8.79l-8-36.55-11.31-3.12L129.06,668a4.42,4.42,0,0,0-.19,4.61l7,12.55a2.5,2.5,0,0,1-2.23,3.71l-10.43-.16h-0.07Z"/><path class="cls-3" d="M373,488.33c-1.33,58.67-151.33,89.34-151.33,89.34s-44,51.33-70,84.66L108.33,653s15.49-56.35,33-108.24c4.29-12.71,8.69-25.15,13-36.43,0,0,12.75-8.34,33.12-19.33,33.94-18.32,89-44,141.55-50.67C329,438.33,374.33,429.67,373,488.33Z"/><circle class="cls-1" cx="121.82" cy="643.67" r="4.67"/><path class="cls-2" d="M121.82,650.84a7.17,7.17,0,1,1,7.17-7.17A7.18,7.18,0,0,1,121.82,650.84Zm0-9.34a2.17,2.17,0,1,0,2.17,2.17A2.17,2.17,0,0,0,121.82,641.5Z"/><path class="cls-1" d="M177.24,531.87c-10.76,10.76-24.76,15.35-35.93,12.89,4.29-12.71,8.69-25.15,13-36.43,0,0,12.75-8.34,33.12-19.33C194.33,500.74,190.39,518.72,177.24,531.87Z"/><path class="cls-2" d="M217.25,577.25a2.49,2.49,0,0,1-1.64-.62l-37.75-33a2.5,2.5,0,0,1,3.29-3.76l37.75,33A2.5,2.5,0,0,1,217.25,577.25Z"/><path class="cls-2" d="M158.34,642.83a2.5,2.5,0,0,1-.6-0.07l-39.33-9.67a2.5,2.5,0,0,1,1.19-4.86l39.33,9.67A2.5,2.5,0,0,1,158.34,642.83Z"/><path class="cls-1" d="M424,389.17s13.33,19.17,33,19.17,34.33-80.83-.67-87.67S399,353.67,424,389.17Z"/><path class="cls-2" d="M457,410.83c-20.71,0-34.44-19.36-35-20.24-13.15-18.67-14.83-40.28-4.38-56.4,8.52-13.14,23.19-19.12,39.25-16,20,3.9,24.83,28.6,22.72,50.41C477.56,389.08,469,410.83,457,410.83ZM426,387.74c0.13,0.18,12.86,18.1,30.95,18.1,7.41,0,15.62-17.61,17.56-37.69,1.9-19.63-2-41.76-18.71-45-14-2.73-26.72,2.43-34.09,13.8s-10,30.52,4.28,50.81h0Z"/><polygon class="cls-1" points="404.75 433.5 411 393.5 437.78 400.8 437 433.5 404.75 433.5"/><path class="cls-2" d="M437,436H404.75a2.5,2.5,0,0,1-2.47-2.89l6.25-40a2.5,2.5,0,0,1,3.13-2l26.78,7.3a2.5,2.5,0,0,1,1.84,2.47l-0.78,32.7A2.5,2.5,0,0,1,437,436Zm-29.33-5h26.89l0.68-28.3L413,396.65Z"/><path class="cls-2" d="M465.67,367.5s-3.67-16.17-15-12.17-10.67,22.17-2.5,27.33L437.78,400.8H409.86s-22.53-30.14-25.19-49.14,15.67-20.5,15.67-20.5S403.67,314.83,417,312s50,4.83,50,4.83,7.13-11.33,13.13-11.21S486,318.25,486,318.25s7.88-10.25,12.75-7.12-3.37,45.25-28,37.5C470.75,348.63,474.08,365.88,465.67,367.5Z"/><path class="cls-1" d="M380.75,435.25s7.75-20,37.75-20S459,440.5,459,440.5H380.75v-5.25Z"/><path class="cls-2" d="M459,443H380.75a2.5,2.5,0,0,1-2.5-2.5v-5.25a2.5,2.5,0,0,1,.17-0.9c0.34-.88,8.73-21.6,40.08-21.6s42.7,26.52,42.81,26.79A2.5,2.5,0,0,1,459,443Zm-75.75-5h71.63c-4-6.6-14.76-20.25-36.38-20.25-25.83,0-34,15.26-35.25,18V438Z"/><path class="cls-3" d="M531.67,776.33a279.63,279.63,0,0,1-38.34,10.29V746.77a9.11,9.11,0,0,0-18.21,0v42.87c-115.82,15.89-234.44-29.31-234.44-29.31,29-206.66,88.32-322,88.32-322,56.3-13.27,206.67,0,206.67,0C538.33,571,531.67,776.33,531.67,776.33Z"/><path class="cls-2" d="M287.52,549.65a2.5,2.5,0,0,1-2.39-3.24c16.2-52.18,30.85-86.29,38.15-102a2.5,2.5,0,0,1,4.53,2.11c-5.83,12.54-21.2,47.52-37.91,101.35A2.5,2.5,0,0,1,287.52,549.65Z"/><path class="cls-2" d="M349.67,752.83h-0.09a2.5,2.5,0,0,1-2.41-2.58c5.95-170.46,54.76-296.24,55.26-297.5a2.5,2.5,0,0,1,4.65,1.83c-0.49,1.24-49,126.29-54.91,295.84A2.5,2.5,0,0,1,349.67,752.83Z"/><path class="cls-2" d="M499.49,769.47a2.5,2.5,0,0,1-.35-5c7.41-1.06,14.95-2.27,22.41-3.62a2.5,2.5,0,0,1,.89,4.92c-7.53,1.36-15.13,2.59-22.6,3.65Z"/><path class="cls-2" d="M419.87,775.24c-45.88,0-82.66-5.87-107.68-11.63-36.12-8.31-55.72-17.91-56.54-18.31a2.5,2.5,0,0,1,2.22-4.48c0.78,0.39,80,38.65,209.65,27.32a2.5,2.5,0,1,1,.44,5C451,774.6,434.94,775.24,419.87,775.24Z"/><path class="cls-1" d="M1394,486.5h13a7.08,7.08,0,0,1,7.08,7.08v6.84a7.08,7.08,0,0,1-7.08,7.08h-13a0,0,0,0,1,0,0v-21A0,0,0,0,1,1394,486.5Z"/><path class="cls-2" d="M1407,510h-13a2.5,2.5,0,0,1-2.5-2.5v-21a2.5,2.5,0,0,1,2.5-2.5h13a9.59,9.59,0,0,1,9.58,9.58v6.84A9.59,9.59,0,0,1,1407,510Zm-10.5-5H1407a4.58,4.58,0,0,0,4.58-4.58v-6.84A4.58,4.58,0,0,0,1407,489h-10.5v16Z"/><path class="cls-2" d="M1473.76,566.26v52.2a299,299,0,0,1-87.57,211.4A422.1,422.1,0,0,1,1087.7,953.5,121.19,121.19,0,0,1,971,799.63l123.27-440.3a438.42,438.42,0,0,0,16.24-118.25c0-87.26-71-158.25-158.25-158.25S794,153.82,794,241.08v26.17h-5V241.08c0-90,73.24-163.25,163.25-163.25s163.25,73.24,163.25,163.25a443.6,443.6,0,0,1-16.43,119.6L975.8,801A116.21,116.21,0,0,0,1087.7,948.5c111.42,0,216.17-43.39,295-122.18a292,292,0,0,0,86.1-207.86v-52.2a69.15,69.15,0,0,0-53.87-67.14,2.5,2.5,0,1,1,1.07-4.89A73.79,73.79,0,0,1,1473.76,566.26Z"/><path class="cls-1" d="M797.83,269.75H785.17v2.06a40,40,0,0,0-27.36,38v65.46a40,40,0,0,0,27.36,38v2.06h12.66a40,40,0,0,0,40-40V309.77A40,40,0,0,0,797.83,269.75Z"/><path class="cls-2" d="M797.83,417.75H785.17a2.5,2.5,0,0,1-2.5-2.5V415a42.46,42.46,0,0,1-27.36-39.73V309.77A42.46,42.46,0,0,1,782.67,270v-0.3a2.5,2.5,0,0,1,2.5-2.5h12.66a42.57,42.57,0,0,1,42.52,42.52v65.46A42.57,42.57,0,0,1,797.83,417.75Zm-10.2-5h10.2a37.56,37.56,0,0,0,37.52-37.52V309.77a37.56,37.56,0,0,0-37.52-37.52h-10.2a2.5,2.5,0,0,1-1.67,1.93,37.47,37.47,0,0,0-25.65,35.59v65.46A37.47,37.47,0,0,0,786,410.82,2.5,2.5,0,0,1,787.63,412.75Z"/><rect class="cls-3" x="743.77" y="267.25" width="82.79" height="150.5" rx="40.02" ry="40.02"/><path class="cls-1" d="M756.25,408.5l-10-26.57A47,47,0,0,1,742.82,358l2-17.33a4.19,4.19,0,0,1,5.06-3.61h0a4.19,4.19,0,0,1,3.18,3.11l5,20.93,5.65-24,9.94-27.3a5.34,5.34,0,0,1,6.55-3.28h0a5.34,5.34,0,0,1,3.73,6l-4.75,29.32a3,3,0,0,0,2,3.32h0a3,3,0,0,0,3.69-1.81l8.77-23.89a5.8,5.8,0,0,1,9.51-2.14l14.1,13.85a12.36,12.36,0,0,1,3.4,11.5l-6.43,27.62a45.55,45.55,0,0,1-5.53,13.47l-27,44.54Z"/><path class="cls-2" d="M781.76,430.79a2.5,2.5,0,0,1-1.53-.52l-25.51-19.79a2.5,2.5,0,0,1-.81-1.1L744,382.86a49.56,49.56,0,0,1-3.63-25.11l2-17.33a6.69,6.69,0,0,1,13.15-.79l2.58,10.71,3.24-13.77a2.51,2.51,0,0,1,.08-0.28l9.94-27.3a7.84,7.84,0,0,1,15.1,3.93l-4.75,29.32a0.48,0.48,0,0,0,.92.24l8.77-23.89A8.3,8.3,0,0,1,805,315.53l14.1,13.85a14.77,14.77,0,0,1,4.09,13.82l-6.44,27.64a48,48,0,0,1-5.83,14.21l-27,44.53A2.5,2.5,0,0,1,781.76,430.79ZM758.34,407l22.74,17.64,25.55-42.14a43,43,0,0,0,5.23-12.74l6.43-27.62a9.79,9.79,0,0,0-2.72-9.15l-14.1-13.85a3.3,3.3,0,0,0-5.41,1.22L787.3,344.2a5.48,5.48,0,0,1-10.55-2.76l4.75-29.32A2.84,2.84,0,0,0,776,310.7l-9.89,27.17-5.61,23.85a2.5,2.5,0,0,1-2.43,1.93h0a2.5,2.5,0,0,1-2.43-1.92l-5-20.93a1.69,1.69,0,0,0-2.62-1,1.67,1.67,0,0,0-.7,1.18l-2,17.33a44.55,44.55,0,0,0,3.28,22.62l0,0.1Z"/><path class="cls-3" d="M492.08,479.73c5.86-17.74,20.57-37.83,43.78-41.39,36,4.94,123,19.55,123,19.55s57.08-36.24,91.68-60.52l38.72,25.93s-31.28,45-63.16,89.53c-7.82,10.9-15.66,21.51-23.1,31,0,0-14.63,4.25-37.32,8.81-37.81,7.6-98,16.06-150.18,7.1C515.49,559.8,473.67,535.44,492.08,479.73Z"/><path class="cls-2" d="M515.49,562.3a2.49,2.49,0,0,1-1.26-.34,63,63,0,0,1-19.47-20c-7.72-12.36-14.87-33.33-5.05-63,6.06-18.35,18.76-33.19,34-39.7a2.5,2.5,0,1,1,2,4.6c-13.91,6-25.56,19.66-31.18,36.67-17.57,53.17,21.89,76.89,22.29,77.12A2.5,2.5,0,0,1,515.49,562.3Z"/><circle class="cls-1" cx="773.62" cy="428.29" r="4.67" transform="translate(138 1043.03) rotate(-73.01)"/><path class="cls-2" d="M773.63,435.47a7.2,7.2,0,0,1-2.1-.32,7.17,7.17,0,0,1-4.76-9h0A7.17,7.17,0,1,1,773.63,435.47Zm-2.09-7.81a2.17,2.17,0,1,0,1.06-1.28,2.16,2.16,0,0,0-1.06,1.28h0Z"/><path class="cls-1" d="M688,514.68c13.43-7.15,28.16-7.45,38.13-1.83-7.82,10.9-15.66,21.51-23.1,31,0,0-14.63,4.25-37.32,8.81C662.52,539.45,671.54,523.41,688,514.68Z"/><path class="cls-2" d="M688.69,507.07a2.5,2.5,0,0,1-2.13-1.18L660.1,463.3a2.5,2.5,0,0,1,4.25-2.64l26.46,42.59A2.5,2.5,0,0,1,688.69,507.07Z"/><path class="cls-2" d="M772.52,444.05a2.49,2.49,0,0,1-1.46-.47L736.27,418.5a2.5,2.5,0,1,1,2.92-4.06L774,439.53A2.5,2.5,0,0,1,772.52,444.05Z"/><path class="cls-2" d="M464.33,822.17a2.5,2.5,0,0,1-.95-4.81,22.65,22.65,0,0,0,14.11-21V776.5a2.5,2.5,0,0,1,5,0v19.82A27.63,27.63,0,0,1,465.28,822,2.5,2.5,0,0,1,464.33,822.17Z"/><path class="cls-2" d="M254.56,283.63a2.5,2.5,0,0,1-2.5-2.5V264.25a2.5,2.5,0,0,1,5,0v16.88A2.5,2.5,0,0,1,254.56,283.63Z"/><path class="cls-2" d="M280,292.21H263.14a2.5,2.5,0,0,1,0-5H280A2.5,2.5,0,0,1,280,292.21Z"/><path class="cls-2" d="M254.56,317.67a2.5,2.5,0,0,1-2.5-2.5V298.29a2.5,2.5,0,0,1,5,0v16.88A2.5,2.5,0,0,1,254.56,317.67Z"/><path class="cls-2" d="M246,292.21H229.1a2.5,2.5,0,0,1,0-5H246A2.5,2.5,0,0,1,246,292.21Z"/><path class="cls-2" d="M890.32,1024.67a2.5,2.5,0,0,1-2.5-2.5v-16.88a2.5,2.5,0,0,1,5,0v16.88A2.5,2.5,0,0,1,890.32,1024.67Z"/><path class="cls-2" d="M915.78,1033.25H898.9a2.5,2.5,0,0,1,0-5h16.88A2.5,2.5,0,0,1,915.78,1033.25Z"/><path class="cls-2" d="M890.32,1058.71a2.5,2.5,0,0,1-2.5-2.5v-16.88a2.5,2.5,0,0,1,5,0v16.88A2.5,2.5,0,0,1,890.32,1058.71Z"/><path class="cls-2" d="M881.74,1033.25H864.86a2.5,2.5,0,0,1,0-5h16.88A2.5,2.5,0,0,1,881.74,1033.25Z"/><circle class="cls-5" cx="1293.43" cy="1073.09" r="16.41"/><circle class="cls-5" cx="226.91" cy="1036.25" r="13.65"/></svg>