<?xml version="1.0" encoding="utf-8"?>
<!-- Generator: Adobe Illustrator 25.3.1, SVG Export Plug-In . SVG Version: 6.00 Build 0)  -->
<svg version="1.1" xmlns="http://www.w3.org/2000/svg" xmlns:xlink="http://www.w3.org/1999/xlink" x="0px" y="0px"
	 viewBox="0 0 600 600" style="enable-background:new 0 0 600 600;" xml:space="preserve">
<style type="text/css">
	.st0{fill:#a9a9a9;}
	.st1{fill:none;stroke:#262424;stroke-width:1.5;stroke-linecap:round;stroke-linejoin:round;stroke-miterlimit:10;}
	.st2{fill:#FFFFFF;stroke:#262424;stroke-width:1.5;stroke-linecap:round;stroke-linejoin:round;stroke-miterlimit:10;}
	.st3{fill:#0b132b;}
	.st4{fill:#FFFFFF;}
	.st5{fill:#ff9f1c;}
	.st6{fill:#ff9f1c;stroke:#ff9f1c;stroke-width:1.5;stroke-linecap:round;stroke-linejoin:round;stroke-miterlimit:10;}
	.st7{fill:#262424;}
	.st8{fill:#FFFFFF;stroke:#262424;stroke-width:1.3195;stroke-linecap:round;stroke-linejoin:round;stroke-miterlimit:10;}
	.st9{fill:#FFFFFF;stroke:#262424;stroke-width:1.2095;stroke-linecap:round;stroke-linejoin:round;stroke-miterlimit:10;}
</style>
<g id="WOMAN_2_LEFT_CALF_1_">
	<g>
		<g>
			<g>
				<path class="st0" d="M274.09,468.06c-0.27,0.95-0.62,1.81-1.01,2.56c-0.61,1.23-1.29,2.18-1.78,2.88
					c-0.24,0.34-0.52,0.64-0.85,0.9c-3.34,2.64-11.26,1.18-19.18-7.66c-8.71-9.7-21.71-20.5-22.99-26.51
					c-0.03-0.18-0.07-0.36-0.09-0.53c0-0.01-0.01-0.02,0-0.03c-0.19-1.25-0.07-2.42,0.3-3.52c0.76-2.28,2.56-4.26,4.84-6.15
					c0.01,0,0.01,0,0.01,0c1.59-1.34,3.42-2.62,5.29-3.93c5.98-4.19,14-6.81,14-6.81s11.36,1.15,13.95,12.88
					c0,0,2.15,15.8,6.23,24.68C274.97,461.53,274.89,465.25,274.09,468.06z"/>
			</g>
			<path class="st1" d="M258.01,437.45c0,0,1.73,16.04,7.74,24.75"/>
			<path class="st2" d="M273.09,470.62c-0.61,1.23-1.29,2.18-1.78,2.88c-0.24,0.34-0.52,0.64-0.85,0.9
				c-3.34,2.64-11.26,1.18-19.18-7.66c-8.71-9.7-21.71-20.5-22.99-26.51c-0.03-0.18-0.07-0.36-0.09-0.53c0-0.01-0.01-0.02,0-0.03
				c-0.19-1.25-0.07-2.42,0.3-3.52c0.76-2.28,2.56-4.26,4.84-6.15c0.01,0,0.01,0,0.01,0s-1.9,3.59,0,9.06
				c1.89,5.47,11.68,11.24,18.02,20.19C257.7,468.22,267.76,473.49,273.09,470.62z"/>
			<path class="st2" d="M258.01,466.35c0,0,13.21,0.49,13.22-13.55c0,0,6.38,11.54,1.86,17.82
				C273.09,470.62,266.55,475.88,258.01,466.35z"/>
		</g>
		<g>
			<g>
				<path class="st2" d="M277.66,422.69l-17.28,9.52c-3.39,1.89-8.47-4.71-5.8-8.6l17.1-12.03L277.66,422.69z"/>
			</g>
		</g>
		<g>
			<g>
				<path class="st3" d="M274.51,434l66.92-36.38c14.44-7.18,17.39-19.24,9.57-29.86l0,0c-5.96-9.01-21.27-7.75-29.81-1.14
					c-31.62,24.48-60.3,46.66-60.3,46.66C257.94,423.28,263.8,432.54,274.51,434z"/>
				<polyline class="st1" points="268.13,417.11 331.08,371.64 329.11,362.58 				"/>
				<path class="st1" d="M276.5,430.01c-8.98-0.91-13.28-6.2-11.06-17.59"/>
			</g>
			
				<ellipse transform="matrix(0.8076 -0.5897 0.5897 0.8076 -160.2655 275.3755)" class="st4" cx="341.92" cy="383.32" rx="13.5" ry="9.44"/>
		</g>
	</g>
</g>
<g id="WOMAN_2_LEFT_THIGH">
	<g>
		<g>
			<path class="st0" d="M515.03,321.8c5.2-40.93,10.87-64.99-7.14-77.25c-23.83-16.23-45.43,7.8-48.73,38.52
				c-3.3,30.72,1.57,104.31,1.57,104.31c-0.5,24.14,24.17,35.02,35.52,23.26c1.38-2,2.39-4.26,2.92-6.68
				c0.41-1.84,0.88-3.96,1.39-6.32c0-0.02,0.01-0.05,0.02-0.07C504.91,377.82,512.44,342.12,515.03,321.8z"/>
		</g>
		<path class="st1" d="M507.39,268.17l1.21,7.95c0.7,4.6,3.67,8.53,7.89,10.47l1.25,0.57"/>
		<g>
			<path class="st1" d="M488.44,261.3l-0.83,16.05c-0.17,3.37-1.89,6.46-4.66,8.39l-3.89,2.71l0.67,96.29"/>
		</g>
	</g>
</g>
<g id="WOMAN_2_LEFT_CALF">
	<g>
		<g>
			<g>
				<path class="st5" d="M414,483.66c-0.28,0.99-0.64,1.87-1.04,2.64c-0.63,1.27-1.33,2.25-1.84,2.98
					c-0.25,0.35-0.54,0.66-0.88,0.93c-3.45,2.73-11.64,1.21-19.83-7.92c-9-10.03-22.44-21.18-23.76-27.4
					c-0.04-0.18-0.07-0.37-0.09-0.55c0-0.01-0.01-0.02,0-0.03c-0.19-1.29-0.07-2.5,0.31-3.64c0.78-2.36,2.64-4.4,5-6.36
					c0.01,0,0.01,0,0.01,0c1.65-1.38,3.54-2.71,5.47-4.06c6.18-4.33,14.47-7.03,14.47-7.03s11.74,1.19,14.42,13.31
					c0,0,2.22,16.33,6.44,25.51C414.9,476.91,414.82,480.76,414,483.66z"/>
			</g>
			<path class="st2" d="M412.96,486.3c-0.63,1.27-1.33,2.25-1.84,2.98c-0.25,0.35-0.54,0.66-0.88,0.93
				c-3.45,2.73-11.64,1.21-19.83-7.92c-9-10.03-22.44-21.18-23.76-27.4c-0.04-0.18-0.07-0.37-0.09-0.55c0-0.01-0.01-0.02,0-0.03
				c-0.19-1.29-0.07-2.5,0.31-3.64c0.78-2.36,2.64-4.4,5-6.36c0.01,0,0.01,0,0.01,0s-1.96,3.72,0,9.36
				c1.95,5.65,12.07,11.61,18.62,20.87C397.05,483.82,407.45,489.27,412.96,486.3z"/>
		</g>
		<g>
			<g>
				<g>
					<path class="st2" d="M419.41,434.74l-20.38,12.5c-8.59-2.82-7.24-10.64-7.24-10.64l18.59-15.43c1.83,0.91,3.78,2.44,5.56,5.03
						C418.3,429.63,419.23,432.47,419.41,434.74z"/>
				</g>
			</g>
			<path class="st0" d="M417.09,442.66c-8.39,0.87-17.8-11.14-14.64-21.04c0.01-0.01,0.01-0.03,0.01-0.03l57.85-48.41
				c17.68-18.77,49.56-1.65,34.14,25.24c-1.55,2-3.51,3.7-5.77,4.96l-5.32,2.94l-2.17,1.19L417.09,442.66z"/>
			<line class="st1" x1="483.89" y1="366.07" x2="414.16" y2="417.94"/>
			
				<ellipse transform="matrix(0.8578 -0.5139 0.5139 0.8578 -128.9905 306.5361)" class="st4" cx="489.56" cy="386.41" rx="16.97" ry="11.53"/>
			<path class="st1" d="M406.61,421.18c-0.39,1.04-0.64,2.39-0.51,4.04c0.17,2.27,1.1,5.11,3.46,8.53c1.78,2.59,3.73,4.13,5.56,5.03
				c1.55,0.74,3.03,1.04,4.28,1.12"/>
		</g>
	</g>
</g>
<g id="WOMAN_2_RIGHT_THIGH">
	<g>
		<g>
			<path class="st0" d="M490.8,312.07c-10-40.03-13.45-64.5-34.68-69.4c-28.09-6.48-39.51,23.74-31.44,53.57
				c8.07,29.82,39.29,96.64,39.29,96.64c8.29,22.68,35.22,23.87,41.54,8.79c0.56-2.37,0.68-4.84,0.3-7.29
				c-0.29-1.86-0.62-4.01-0.99-6.39c-0.01-0.02-0.01-0.05-0.01-0.07C501.69,367.95,495.76,331.95,490.8,312.07z"/>
		</g>
		<g>
			<path class="st1" d="M457.71,379.17c3.77,8.35,6.27,13.71,6.27,13.71c8.29,22.68,35.22,23.87,41.54,8.79
				c0.56-2.37,0.68-4.84,0.3-7.29c-0.29-1.86-0.62-4.01-0.99-6.39c-0.01-0.02-0.01-0.05-0.01-0.07
				c-3.13-19.96-9.05-55.96-14.01-75.84c-10-40.03-13.45-64.5-34.68-69.4"/>
		</g>
		<g>
			<path class="st1" d="M439.66,268.95l2.01,11.41c0.69,3.88-0.67,7.85-3.58,10.51l-4.14,3.77l36.84,92.75"/>
			<line class="st1" x1="433.96" y1="294.64" x2="429.28" y2="272.32"/>
		</g>
	</g>
</g>
<g id="WOMAN_2_RIGHT_CAL">
	<g>
		<g>
			<path class="st0" d="M522.73,469.55c-1.64,8.28-15.89,13.73-24.42,7.79c-0.01-0.01-0.02-0.02-0.02-0.02l-29.21-69.55
				c-12.72-22.43,13.03-47.84,34.18-25.18c1.45,2.07,2.5,4.44,3.04,6.98l1.24,5.95l0.5,2.42L522.73,469.55z"/>
			<path class="st1" d="M504.56,384.73c0.79,1.51,1.37,3.13,1.73,4.83l1.24,5.95l0.5,2.42l14.69,71.61
				c-1.64,8.28-15.89,13.73-24.42,7.79c-0.01-0.01-0.02-0.02-0.02-0.02l-29.21-69.55c-1.81-3.18-2.84-6.43-3.22-9.59"/>
			<line class="st1" x1="469.23" y1="383.14" x2="498.24" y2="465.06"/>
			
				<ellipse transform="matrix(0.9712 -0.2383 0.2383 0.9712 -77.3206 127.9149)" class="st4" cx="490.34" cy="383.72" rx="11.53" ry="16.97"/>
			<g>
				<g>
					<path class="st2" d="M524.64,495.5l-11.67,2.62l-11.68-28.13c1.4-1.49,3.44-2.89,6.44-3.83c3.96-1.26,6.96-1.3,9.17-0.8
						L524.64,495.5z"/>
				</g>
			</g>
			<path class="st1" d="M520.61,467.04c-0.88-0.68-2.1-1.32-3.71-1.68c-2.22-0.5-5.21-0.46-9.17,0.8c-3,0.94-5.05,2.35-6.44,3.83
				c-1.17,1.27-1.89,2.59-2.33,3.76"/>
		</g>
		<g>
			<path class="st5" d="M557.54,512.02c-13.45,6.21-29.52,16.71-36.48,16.08c-0.2-0.02-0.41-0.04-0.6-0.08c-0.01,0-0.01,0-0.02,0
				c-1.43-0.22-2.65-0.74-3.72-1.5c-2.22-1.59-3.77-4.21-5.06-7.32c-0.91-2.18-1.69-4.6-2.48-7.06c-2.55-7.89-2.71-17.48-2.71-17.48
				s5.05-11.96,18.65-10.84c0,0,17.88,2.96,28.88,1.5c5.82-0.77,9.83,0.56,12.61,2.37c2.49,1.61,4.01,3.61,4.98,4.84
				c0.28,0.37,0.52,0.78,0.69,1.23C574.03,498.26,569.79,506.37,557.54,512.02z"/>
			<path class="st2" d="M557.54,512.02c-13.45,6.21-29.52,16.71-36.48,16.08c-0.2-0.02-0.41-0.04-0.6-0.08c-0.01,0-0.01,0-0.02,0
				c-1.43-0.22-2.65-0.74-3.72-1.5c-2.22-1.59-3.77-4.21-5.06-7.32c-0.08-1.41,0.27-2.84,1.3-4.18
				c4.67-6.05,25.05-13.04,32.81-18.39c6.74-4.65,13.39-9.63,20.84-8.93c2.49,1.61,4.01,3.61,4.98,4.84
				c0.28,0.37,0.52,0.78,0.69,1.23C574.03,498.26,569.79,506.37,557.54,512.02z"/>
			<path class="st6" d="M557.54,512.02c-13.45,6.21-29.52,16.71-36.48,16.08c-0.22-0.05-0.43-0.07-0.6-0.08c-0.01,0-0.01,0-0.02,0
				c-1-0.02-2.63-0.51-3.72-1.5c-1.22-1.13-1.77-2.91,0.04-5.43c3.42-4.77,19.5-12.5,27.65-17.6c8.16-5.1,22.33-15.7,27.85-9.76
				c0,0,0,0,0.02,0.03C574.03,498.26,569.79,506.37,557.54,512.02z"/>
		</g>
	</g>
</g>
<g id="WOMAN_2_RIGHT_UPPER_ARM_1_">
	<path class="st0" d="M502.47,157.5c-4.94-8.5-19.73-12.88-25.61-3.11c-4.5,7.47-1.51,17.81,0.71,25.45
		c1.61,5.58,12.37,31.71,18.13,44.13c2.12,4.57,3.76,7.87,4.36,8.61c7.29,15.62,30.31,1.67,24.16-17.47
		C524.21,215.11,506.28,164.05,502.47,157.5z"/>
</g>
<g id="WOMAN_2_LEFT_ARM">
	<g>
		<path class="st2" d="M544.89,258.49l5.15,8.32c0,0,13.72,9.07,15.24,10.43c1.51,1.36,7.28,13.74,7.23,16.79
			c-0.05,3.05-1.99,6.88-3.77,8.13c-1.78,1.24-6.92-10.77-6.92-10.77s4.64,11.2,2.82,13.24s-4.11-0.02-5.22-2.33
			c-1.11-2.32-4.39-9.16-5.49-11.44c-1.09-2.28-4.59-5.53-4.59-5.53s0.72,3.08,1.55,5.26c1.29,3.37,3.19,7.32,3.42,8.72
			s-3.07,3.95-5.78-0.79c-2.71-4.75-4.81-10.05-5.93-12.37c-2.63-5.43-0.96-11.01-0.96-11.01l-4.41-6.49L544.89,258.49z"/>
		<path class="st0" d="M552.81,263.84l-25.18-42.62c-12.35-18.64-33.33-4.88-27.57,11.36c0.66,1.4,3.5,4.64,7.26,8.58
			c9.65,10.12,30.48,33.01,30.48,33.01S550.33,271.63,552.81,263.84z"/>
	</g>
</g>
<g id="WOMAN_2_BODY">
	<g>
		<path class="st5" d="M484.13,147.86l-13.53-3.5l-27.41,5.34c-9.48,1.84-16.61,9.71-17.51,19.32l6.02,54.86l-15.42,54.09
			c0,0,40.34-5.59,64.53-6.3c13.4-0.39,49.82-1.56,49.82-1.56s-20.42-49.83-25.16-69.34c0,0-0.14-8.5,0.56-16.68
			c0.43-5.04-4.46-16.7-8.29-24.92C495.13,153.55,490.13,149.41,484.13,147.86z"/>
		<g>
			<path class="st2" d="M470.85,137.95c9.88,1.18,17.74,13.67,7.37,21.09c0,0-1.87-5.44-4.05-7.89c0,0-0.28,5.22-2.57,9.03
				c0,0-10.92-3.31-13.65-11.07C455.19,141.33,463.16,137.03,470.85,137.95z"/>
		</g>
	</g>
</g>
<g id="WOMAN_2_HAIR">
	<path class="st7" d="M453.25,113.81c0,0,1.4,22.11-0.7,33.35c0,0,17.35,3.79,27.47-4.01c10.13-7.8,4.07-37.83-3.96-38.3
		C468.03,104.39,453.25,113.81,453.25,113.81z"/>
</g>
<g id="WOMAN_2_NECK">
	<g>
		<path class="st2" d="M474.69,125.71l3.55,18.83c0,0-0.21,5.08-4.42,5.64c-4.21,0.55-10.68-2.31-10.68-2.31l-1.84-22.12
			L474.69,125.71z"/>
	</g>
</g>
<g id="WOMAN_2_RIGHT_UPPER_ARM">
	<g>
		<path class="st0" d="M457.49,168.3c0.17-7.58-7.04-21.42-21.53-15.96c-8.91,3.36-12.85,17.86-14.49,26.39
			c-1.21,6.24-3.73,37-4.3,51.96c-0.21,5.5-0.25,9.52-0.04,10.55c0.74,24.79,28.77,22.65,32.19-4.99
			C449.32,236.25,457.31,176.58,457.49,168.3z"/>
	</g>
</g>
<g id="WOMAN_2_RIGHT_ARM">
	<g>
		<g>
			<path class="st0" d="M430.09,225.15c-18.45,9.66-8.92,44.58,11.77,30.38c1.55-0.69,5.15-3.72,9.54-7.73
				c11.28-10.31,36.77-32.54,36.77-32.54s-2.49-13.75-10.94-16.64L430.09,225.15z"/>
		</g>
		<path class="st2" d="M481.96,199.4l7.89-11.85c0.74-1.11,2.17-1.52,3.39-0.96l0,0c1.4,0.64,1.98,2.31,1.3,3.68l-3.36,6.71
			l1.39,1.16c1.78,1.48,4.09,2.16,6.39,1.89l4.7-0.55c1.73-0.2,3.41-0.77,4.92-1.65l5.18-3.03c0.92-0.54,2.1-0.36,2.82,0.43l0,0
			c0.88,0.97,0.76,2.49-0.27,3.3l-5.68,4.49l-3.22,1.72l2.55-0.41c1.08-0.17,2.13-0.51,3.11-0.99l3.53-1.75
			c1-0.49,2.2-0.12,2.76,0.84l0,0c0.34,0.6,0.37,1.33,0.07,1.96l-2.14,4.43c-0.65,1.35-1.78,2.42-3.16,2.99l-9.17,3.81
			c-2.9,1.21-6.16,1.24-9.08,0.1l-10.46-4.07l-2.45,1.82c0,0-8.68-4.8-5.34-11.28L481.96,199.4z"/>
		<g>
			<path class="st1" d="M446.6,215.86l-16.51,9.29c-4.53,2.37-7.37,6.26-8.78,10.57"/>
		</g>
		<path class="st1" d="M472.49,203.68c0,0-2.59,10.51,10.51,13.88"/>
	</g>
</g>
<g id="WOMAN_2_HEAD">
	<g>
		<g>
			<g>
				<g>
					<g>
						<path class="st4" d="M449.49,122.12c-0.05,7.94,2.9,17.28,12.49,17.61c7.04,0.24,15.34-7.75,16.59-18.39
							c1.25-10.65-0.05-19.9-12.94-20.05c-1.15-0.01-3.09,0.13-4.12,0.29c-7.56,1.19-10.44,1.68-11.9,16.31
							C449.48,119.18,449.5,120.63,449.49,122.12z"/>
					</g>
				</g>
				<g>
					<g>
						<path class="st1" d="M477.45,107.49c-1.76-3.73-5.32-6.13-11.83-6.21c-1.15-0.01-3.09,0.13-4.12,0.29
							c-7.56,1.19-10.44,1.68-11.9,16.31c-0.13,1.29-0.11,2.74-0.12,4.23c-0.05,7.94,2.9,17.28,12.49,17.61
							c2.75,0.09,5.7-1.07,8.34-3.16"/>
					</g>
				</g>
			</g>
			<path class="st7" d="M474.92,122.56c-3.14-1.67-4.16-4.31-4.32-6.72c-0.05-0.95-0.02-2.23-0.18-3.4
				c-6.07,5.26-16.84,7.79-21.51,8.68c-1.5,0.29-3.07-0.36-3.8-1.7c-4.57-8.34,3.18-22.75,13.32-21.5
				c12.3-6.9,25.23,0.18,26.23,10.12C485.76,119.05,478.05,124.22,474.92,122.56z"/>
			<path class="st7" d="M473.73,95.92c0,0,18.17,1.83,17.12,45.41c0,0-5.21,5-17.12,7.88c0,0,5.13-20.48,2.8-31.08
				C474.2,107.53,473.73,95.92,473.73,95.92z"/>
			<g>
				<g>
					<path class="st4" d="M473.87,121.59c0,0,5.52-5.04,10.87-2.96s2.53,14.77-10.86,12.34L473.87,121.59z"/>
				</g>
				<g>
					<path class="st1" d="M473.87,121.59"/>
					<path class="st1" d="M473.87,121.59c0,0,5.52-5.04,10.87-2.96s2.53,14.77-10.86,12.34"/>
				</g>
			</g>
		</g>
	</g>
</g>
<g id="MAN_LEFT_THIGH">
	<g>
		<path class="st3" d="M358.63,279.19c0,0,0.01-0.47-0.06-1.3c-0.66-19.24-1.95-44.17-29.46-45.16
			c-30.45-1.09-28.28,46.96-27.15,55.72c1.16,8.96,2.54,19.44,2.93,21.14c0.33,1.45,8.08,38.95,13.91,70.36
			c5.07,24.78,37.42,17.29,37.39-3.7L358.63,279.19z"/>
		<line class="st1" x1="357.19" y1="336.39" x2="358.77" y2="280.63"/>
		<path class="st1" d="M322.9,276.84l0.53,10.92c0.23,4.7-1.85,9.22-5.57,12.11l0,0"/>
		<line class="st1" x1="314.94" y1="277.14" x2="329.11" y2="379.2"/>
	</g>
</g>
<g id="MAN_RIGHT_THIGH">
	<g>
		<path class="st3" d="M314.6,286.46c0,0-0.11-0.46-0.39-1.24c1.07-11.38,2.43-48.25-25.1-48.25c-32.56,0-32,28.28-32,28.28v18.78
			c0,8.83,1.7,17.59,5.02,25.77c3.39,8.37,7.39,18.15,8.2,19.71c0.69,1.32,17.71,35.62,31.31,64.53
			c11.2,22.68,40.58,7.23,35.22-13.07L314.6,286.46z"/>
		<path class="st1" d="M297.76,385.82c1.31,2.76,2.62,5.51,3.89,8.21c0.12,0.24,0.24,0.48,0.36,0.71"/>
		<polyline class="st1" points="315.1,287.81 327.72,342.14 336.38,378.87 		"/>
		<path class="st1" d="M279.45,293.25l3.28,10.43c1.41,4.49,0.55,9.39-2.32,13.13l0,0"/>
		<line class="st1" x1="271.82" y1="295.56" x2="311.43" y2="390.69"/>
	</g>
</g>
<g id="MAN_RIGHT_CALF">
	<g>
		<g>
			<g>
				<polygon class="st2" points="326.24,462.96 326.25,489.08 316.08,488.59 313.65,462.2 				"/>
			</g>
			<g>
				<path class="st3" d="M368.5,522.97l0.06,4.54l-56.05,0.72c0,0-0.21-2.36-0.44-6.34c-0.45-7.83-1.02-20.98-0.17-35.55l17.85-3.1
					c0,0,15.56,15.78,29.38,28.04c1.43,1.27,2.95,2.51,4.53,3.68C366.72,517.2,368.46,520.02,368.5,522.97z"/>
				<path class="st1" d="M324.03,488.24c0,0,5.47,10.25,17.84,22.76"/>
				
					<ellipse transform="matrix(0.9999 -0.0128 0.0128 0.9999 -6.4882 4.1652)" class="st2" cx="321.12" cy="507.34" rx="4.98" ry="5.54"/>
				<path class="st2" d="M368.5,522.97l0.06,4.54l-56.05,0.72c0,0-0.21-2.36-0.44-6.34l29.59-0.38c0,0,1.72-13.21,17.48-10.23
					c1.43,1.27,2.95,2.51,4.53,3.68C366.72,517.2,368.46,520.02,368.5,522.97z"/>
			</g>
		</g>
		<g>
			<g>
				<path class="st3" d="M334.2,471.6l4.27-76.05c1.49-16.06-7.21-24.91-20.36-23.85l0,0c-10.79,0.33-17.78,14.02-16.65,24.76
					c4.18,39.77,7.96,75.82,7.96,75.82L334.2,471.6z"/>
				<path class="st1" d="M301.42,393.06c0.71,6.77,1.44,16.83,2.11,23.22"/>
				<polyline class="st1" points="316.25,465 310.93,390.69 306.4,378.6 				"/>
				<line class="st1" x1="331.25" y1="465.1" x2="310.48" y2="465.25"/>
			</g>
			
				<ellipse transform="matrix(0.9971 -0.0767 0.0767 0.9971 -28.762 26.1833)" class="st4" cx="326.56" cy="387.61" rx="9.44" ry="13.5"/>
		</g>
	</g>
</g>
<g id="MAN_LEFT_UPPER_ARM">
	<path class="st5" d="M350.67,141.66c10.21,1.87,32.62,40.18,37.95,60.41s0.65,27.21-7.25,28.66c-7.89,1.44-17.6,0.75-30.26-30.72
		C338.45,168.54,331.78,138.2,350.67,141.66z"/>
</g>
<g id="MAN_BODY">
	<g>
		<path class="st5" d="M253.45,284.05h9.86V272.6c0-0.87,0.35-1.66,0.92-2.23c0.57-0.57,1.36-0.92,2.23-0.92
			c1.74,0,3.15,1.41,3.15,3.15v11.45h93.99c0,0-4.95-56.34-1.88-92.41c3.04-35.83-11.04-49.98-11.04-49.98
			c-52.97-12.07-80.28,2.94-80.28,2.94C252.42,221.07,253.45,284.05,253.45,284.05z"/>
		<path class="st1" d="M354.42,147.02c3.93,6.98,9.29,21.15,7.3,44.63c-0.91,10.69-0.96,23.17-1.47,35.43"/>
		<line class="st1" x1="273.49" y1="277.03" x2="356.88" y2="277.63"/>
		<path class="st2" d="M298.05,142.29c3.58,8.32,10.3,11.69,14.5,13.01c1.08-5.93,4.06-13.4,4.06-13.4
			c3.31,4.56,5.06,10.58,5.49,13.33c10.72-2.95,11.94-13.25,11.94-13.25c-1.31-10.32-10.19-18.1-17.81-17.84
			C299.39,124.71,298.05,142.29,298.05,142.29z"/>
		<path class="st2" d="M306.37,103.33l0.27,10.35l0.47,17.71c5.96,4.16,11.75,4.6,17.34,0.41l-0.82-8.23l-1.24-12.46L306.37,103.33z
			"/>
	</g>
</g>
<g id="MAN_RIGHT_UPPER_ARM">
	<g>
		<g>
			<path class="st5" d="M290.89,164.43c-1.82,8.08-21.43,64.99-21.43,64.99c-5.34,16.01-18.13,21.93-26.46,18.67
				c-5.41-2.11-8.94-8.11-7.3-17.75c0-0.69,0.9-3.7,1.89-7.21c0.5-1.78,1.02-3.69,1.45-5.5c3.51-14.55,12.05-44.21,14.47-50.08
				c3.3-8.05,10.02-21.48,19.42-23.02C288.22,142.04,292.55,157.03,290.89,164.43z"/>
		</g>
		<g>
			<path class="st1" d="M272.93,144.53c15.29-2.49,19.62,12.5,17.96,19.9c-1.82,8.08-21.43,64.99-21.43,64.99
				c-1,3-2.26,5.65-3.71,7.94"/>
		</g>
		<path class="st4" d="M247.37,236.89c0,4.62-1.72,8.71-4.37,11.2c-5.41-2.11-8.94-8.11-7.3-17.75c0-0.69,0.9-3.7,1.89-7.21
			C243.05,223.58,247.37,229.58,247.37,236.89z"/>
	</g>
</g>
<g id="MAN_RIGHT_ARM">
	<g>
		<g>
			<g>
				<path class="st5" d="M266.88,242.56c-0.48,15.27-0.76,49.09-0.76,49.09s-12.06,7.06-19.75,2.52l-8.66-43.53l-1.89-9.51
					c-1.52-6.59,0.9-12.68,4.97-17.04c8.44-9.05,23.93-10.64,25.75,6.2C267.02,231.91,267.07,236.62,266.88,242.56z"/>
			</g>
		</g>
		<g>
			<g>
				<path class="st1" d="M261.46,219.56c2.61,2,4.51,5.46,5.08,10.72c0.48,1.62,0.53,6.33,0.34,12.27
					c-0.48,15.27-0.76,49.09-0.76,49.09s-12.06,7.06-19.75,2.52"/>
			</g>
		</g>
		<path class="st4" d="M247.37,236.89c0,7.26-4.26,13.22-9.66,13.75l-1.89-9.51c-1.52-6.59,0.9-12.68,4.97-17.04
			C244.65,226.11,247.37,231.08,247.37,236.89z"/>
		<path class="st2" d="M249.61,291.7c0,0,6.01-4.8,14.08-1.27l0.32,3.56c0,0,8.04,17.59,8.79,20.63c0.75,3.03-2.28,10.35-3.16,11.26
			c-0.87,0.91-3.43,0.31-3.43,0.31s0.29,1.88-6.1,2.46c-6.39,0.58-11.58-0.14-12.75-2.42c-1.16-2.28,3.56-4.14,3.56-4.14l0.71-3.98
			c0,0-4-4.56-5.87-8.14s4.87-13.5,4.87-13.5L249.61,291.7z"/>
		<path class="st1" d="M247.37,287.81c0,0,7.01-5.96,17.29-1.79"/>
	</g>
</g>
<g id="MAN_LEFT_ARM">
	<g>
		<g>
			<path class="st5" d="M337.03,183.19c11.17,28.78,24.01,44.06,34.62,49.16c6.61,3.18,12.35,2.41,16.29-1.51
				c1.94-1.93,2.98-4.16,3.4-6.51c1.76-10.05-8.03-22.23-8.03-22.23l-34.7-29.58L337.03,183.19z"/>
			<path class="st1" d="M381.31,200.4l-32.71-27.88l-11.57,10.67c9.41,24.25,20.01,38.92,29.45,45.98"/>
			<path class="st1" d="M353.06,178.86c0,0-2.58,9.12-11.92,8.92"/>
			<path class="st4" d="M371.64,232.34c6.61,3.18,12.35,2.41,16.29-1.51c1.94-1.93,2.98-4.16,3.4-6.51
				c-0.5-1.57-1.36-3.07-2.56-4.38c-4.22-4.6-11.15-5.11-15.47-1.15C369.56,222.24,368.99,227.9,371.64,232.34z"/>
		</g>
		<g>
			<path class="st2" d="M323,164.3c3.69-1.23,11.95,11.49,8.01,14.41C327.07,181.63,313.1,167.59,323,164.3z"/>
			<path class="st2" d="M340.51,156.76c0,0,9.29,7.82,9.72,14.78c0.43,6.96-10.07,13.76-16.5,10.5s-10.18-14.3-4.03-18.48
				c0,0-10.12,5.39-13.1,1.37c-2.98-4.01,14.63-12.32,18.78-12.16S340.51,156.76,340.51,156.76z"/>
		</g>
	</g>
</g>
<g id="MAN_HEAD">
	<g>
		<g>
			<g>
				<path class="st4" d="M292.02,110.37c2.15,8.28,6.16,17.97,16.01,14.84c11.72-3.73,18.16-13.42,16.5-24.86
					c-1.66-11.44-7.93-17.07-21.4-13.64c-1.2,0.31-2.32,0.69-3.35,1.15c-7.54,3.34-10.49,10.48-8.81,18.06
					C291.27,107.29,291.61,108.81,292.02,110.37z"/>
			</g>
			<g>
				<path class="st1" d="M299.78,87.87c-7.54,3.34-10.49,10.48-8.81,18.06c0.3,1.37,0.64,2.88,1.05,4.45
					c2.15,8.28,6.16,17.97,16.01,14.84c4.73-1.51,8.61-3.98,11.43-7.16"/>
			</g>
			<path class="st7" d="M328.44,101.95c0,0-1.32,2.82-3.16,5.3l-6,1.31l-1.96-4.09c0,0-3.87,0.42-5.07-2.04c0,0-0.03-0.05-0.08-0.17
				c-0.33-0.82-1.71-4.48-2.05-10.46c0,0-8.6,5.51-13.55,6.82c-1.78,0.47-4,0.1-6.11-0.56c-4.24-1.33-8.67-7.21-8.66-11.65
				c0-0.03,0-0.06,0-0.09c0.1-6.52,4.09-2.63,4.09-2.63s0.15-5.26,3.3-6.13c3.16-0.87,5.92,3.55,5.92,3.55s8.25-3.67,18.65-3.69
				c12.68-0.03,10.92,8.98,10.92,8.98S334.27,87.9,328.44,101.95z"/>
			<g>
				<path class="st4" d="M320.5,107.7c-1.26-4.69,1.41-9.64,6.09-10.93c0.95-0.26,1.98-0.37,3.05-0.25
					c6.16,0.68,6.74,14.68-7.89,15.88L320.5,107.7z"/>
				<path class="st1" d="M320.5,107.7c-1.26-4.69,1.41-9.64,6.09-10.93c0.95-0.26,1.98-0.37,3.05-0.25
					c6.16,0.68,6.74,14.68-7.89,15.88"/>
			</g>
		</g>
	</g>
</g>
<g id="WOMAN_1_LEFT_THIGH">
	<g>
		<g>
			<path class="st0" d="M189.96,324.67c5.2-40.93,10.87-64.99-7.14-77.25c-23.83-16.23-45.43,7.8-48.73,38.52
				c-3.3,30.72,1.57,104.31,1.57,104.31c-0.5,24.14,24.17,35.02,35.52,23.26c1.38-2,2.39-4.26,2.92-6.68
				c0.41-1.84,0.88-3.96,1.39-6.32c0-0.02,0.01-0.05,0.02-0.07C179.84,380.7,187.38,345,189.96,324.67z"/>
		</g>
		<path class="st1" d="M182.32,271.05l1.21,7.95c0.7,4.6,3.67,8.53,7.89,10.47l2.84,1.3"/>
		<g>
			<path class="st1" d="M157.95,265.94l-2.26,11.37c-0.77,3.87-3.47,7.07-7.15,8.49l-5.22,2.01l0.69,99.8"/>
			<line class="st1" x1="143.31" y1="287.81" x2="147.05" y2="265.32"/>
		</g>
	</g>
</g>
<g id="WOMAN_1_LEFT_CALF">
	<g>
		<g>
			<g>
				<path class="st0" d="M88.69,485.47c-0.27,0.95-0.62,1.81-1.01,2.56c-0.61,1.23-1.29,2.18-1.78,2.88
					c-0.24,0.34-0.52,0.64-0.85,0.9c-3.34,2.64-11.26,1.18-19.18-7.66c-8.71-9.7-21.71-20.5-22.99-26.51
					c-0.03-0.18-0.07-0.36-0.09-0.53c0-0.01-0.01-0.02,0-0.03c-0.19-1.25-0.07-2.42,0.3-3.52c0.76-2.28,2.56-4.26,4.84-6.15
					c0.01,0,0.01,0,0.01,0c1.59-1.34,3.42-2.62,5.29-3.93c5.98-4.19,14-6.81,14-6.81s11.36,1.15,13.95,12.88
					c0,0,2.15,15.8,6.23,24.68C89.57,478.94,89.49,482.66,88.69,485.47z"/>
			</g>
			<path class="st2" d="M87.68,488.03c-0.61,1.23-1.29,2.18-1.78,2.88c-0.24,0.34-0.52,0.64-0.85,0.9
				c-3.34,2.64-11.26,1.18-19.18-7.66c-8.71-9.7-21.71-20.5-22.99-26.51c-0.03-0.18-0.07-0.36-0.09-0.53c0-0.01-0.01-0.02,0-0.03
				c-0.19-1.25-0.07-2.42,0.3-3.52c0.76-2.28,2.56-4.26,4.84-6.15c0.01,0,0.01,0,0.01,0s-1.9,3.59,0,9.06
				c1.89,5.47,11.68,11.24,18.02,20.19C72.29,485.63,82.35,490.9,87.68,488.03z"/>
		</g>
		<g>
			<g>
				<g>
					<path class="st4" d="M94.34,437.62l-20.38,12.5c-8.59-2.82-7.24-10.64-7.24-10.64l18.59-15.43c1.83,0.91,3.78,2.44,5.56,5.03
						C93.24,432.51,94.16,435.35,94.34,437.62z"/>
				</g>
			</g>
			<path class="st5" d="M91.31,410.49l-15.77,13.57c0,0-1.51,8,4.95,16.02s13.84,5.51,13.84,5.51l14.56-8.49
				c0,0,3.37-6.37-2.51-16.98C100.5,409.51,91.31,410.49,91.31,410.49z"/>
			<path class="st0" d="M169.39,401.31c-1.56,2-3.51,3.7-5.78,4.95l-5.32,2.95l-2.17,1.19l-49.35,27.05
				c-2.58-0.59-9.03-2.77-13.51-10.03c-4.09-6.64-3.32-11.72-2.55-14.07l44.54-37.28C152.93,357.3,184.81,374.42,169.39,401.31z"/>
			<line class="st1" x1="158.82" y1="368.95" x2="92.52" y2="418.27"/>
			
				<ellipse transform="matrix(0.8578 -0.5139 0.5139 0.8578 -176.6848 139.8822)" class="st4" cx="164.49" cy="389.29" rx="16.97" ry="11.53"/>
		</g>
	</g>
</g>
<g id="WOMAN_1_RIGHT_THIGH">
	<g>
		<g>
			<path class="st0" d="M165.74,314.95c-10-40.03-13.45-64.5-34.68-69.4c-28.09-6.48-39.51,23.74-31.44,53.57
				c8.07,29.82,39.29,96.64,39.29,96.64c8.29,22.68,35.22,23.87,41.54,8.79c0.56-2.37,0.68-4.84,0.3-7.29
				c-0.29-1.86-0.62-4.01-0.99-6.39c-0.01-0.02-0.01-0.05-0.01-0.07C176.62,370.83,170.7,334.82,165.74,314.95z"/>
		</g>
		<g>
			<path class="st1" d="M132.13,380.93c4.05,8.99,6.78,14.83,6.78,14.83c8.29,22.68,35.22,23.87,41.54,8.79
				c0.56-2.37,0.68-4.84,0.3-7.29c-0.29-1.86-0.62-4.01-0.99-6.39c-0.01-0.02-0.01-0.05-0.01-0.07
				c-3.13-19.96-9.05-55.96-14.01-75.84c-10-40.03-13.45-64.5-34.68-69.4"/>
		</g>
		<g>
			<path class="st1" d="M114.6,271.82l2.01,11.41c0.69,3.88-0.67,7.85-3.58,10.51l-4.14,3.77l36.84,92.75"/>
			<line class="st1" x1="108.89" y1="297.51" x2="104.22" y2="275.2"/>
		</g>
	</g>
</g>
<g id="WOMAN_1_RIGHT_CAL">
	<g>
		<g>
			<g>
				<path class="st0" d="M194.47,456.87l-25.58,13.01l-24.88-59.24c-12.72-22.43,13.03-47.84,34.18-25.18
					c1.45,2.07,2.5,4.44,3.04,6.98l1.24,5.95l0.5,2.42L194.47,456.87z"/>
				<path class="st1" d="M168.89,469.88l-24.88-59.24c-1.81-3.18-2.84-6.43-3.22-9.59"/>
				<path class="st1" d="M179.5,387.61c0.79,1.51,1.37,3.13,1.73,4.83l1.24,5.95l0.5,2.42l12.13,59.14"/>
				<line class="st1" x1="144.16" y1="386.02" x2="173.18" y2="467.94"/>
				
					<ellipse transform="matrix(0.9712 -0.2383 0.2383 0.9712 -87.3732 50.5267)" class="st4" cx="165.27" cy="386.6" rx="11.53" ry="16.97"/>
			</g>
			<path class="st5" d="M159.33,455.22l9.44,22.5c0,0,8.37,4.58,19.66,0.27c11.28-4.31,11.15-13.45,11.15-13.45l-4.21-19.31
				c0,0-5.89-6.06-19.85-3.33S159.33,455.22,159.33,455.22z"/>
			<g>
				<g>
					<path class="st4" d="M199.57,498.38L187.9,501l-11.68-28.13c1.4-1.49,3.44-2.89,6.44-3.83c3.96-1.26,6.96-1.3,9.17-0.8
						L199.57,498.38z"/>
				</g>
			</g>
			<path class="st1" d="M195.54,469.92c-0.88-0.68-2.1-1.32-3.71-1.68c-2.22-0.5-5.21-0.46-9.17,0.8c-3,0.94-5.05,2.35-6.44,3.83
				c-1.17,1.27-1.89,2.59-2.33,3.76"/>
		</g>
		<g>
			<path class="st0" d="M229.87,514.33c-12.87,5.94-28.25,15.99-34.91,15.39c-0.2-0.02-0.39-0.04-0.58-0.08c-0.01,0-0.01,0-0.02,0
				c-1.37-0.21-2.53-0.71-3.56-1.44c-2.13-1.52-3.61-4.03-4.84-7.01c-0.87-2.09-1.62-4.4-2.38-6.76
				c-2.44-7.55-2.59-16.73-2.59-16.73s4.83-11.44,17.85-10.37c0,0,17.11,2.83,27.64,1.44c5.57-0.74,9.41,0.53,12.07,2.27
				c2.38,1.54,3.83,3.45,4.76,4.63c0.27,0.36,0.5,0.75,0.66,1.18C245.65,501.16,241.59,508.92,229.87,514.33z"/>
			<path class="st2" d="M229.87,514.33c-12.87,5.94-28.25,15.99-34.91,15.39c-0.2-0.02-0.39-0.04-0.58-0.08c-0.01,0-0.01,0-0.02,0
				c-1.37-0.21-2.53-0.71-3.56-1.44c-2.13-1.52-3.61-4.03-4.84-7.01c-0.08-1.35,0.26-2.72,1.25-4c4.47-5.79,23.97-12.48,31.4-17.6
				c6.45-4.45,12.81-9.22,19.95-8.55c2.38,1.54,3.83,3.45,4.76,4.63c0.27,0.36,0.5,0.75,0.66,1.18
				C245.65,501.16,241.59,508.92,229.87,514.33z"/>
			<path class="st6" d="M229.87,514.33c-12.87,5.94-28.25,15.99-34.91,15.39c-0.21-0.05-0.41-0.07-0.58-0.08c-0.01,0-0.01,0-0.02,0
				c-0.95-0.02-2.52-0.49-3.56-1.44c-1.17-1.08-1.69-2.78,0.04-5.2c3.27-4.57,18.66-11.96,26.46-16.84
				c7.81-4.88,21.37-15.03,26.65-9.34c0,0,0,0,0.02,0.03C245.65,501.16,241.59,508.92,229.87,514.33z"/>
		</g>
	</g>
</g>
<g id="CHAT_BALLOON_2">
	<g>
		<path class="st8" d="M429.39,332.85c0,10.93-12.88,19.8-28.75,19.8c-15.88,0-28.76-8.87-28.76-19.8c0-10.94,12.88-19.8,28.76-19.8
			c1.16,0,2.31,0.05,3.45,0.15c0.36-1.99,1.58-6.14,5.67-8.11c0.47-0.23,0.94,0.3,0.7,0.76c-1.64,3.07-1.17,6.18-0.46,8.29
			C421.28,316.79,429.39,324.17,429.39,332.85z"/>
		<g>
			<path class="st8" d="M412.6,340.39h-23.92c-1.27,0-2.3-1.03-2.3-2.3l0,0c0-1.27,1.03-2.3,2.3-2.3h23.92c1.27,0,2.3,1.03,2.3,2.3
				l0,0C414.9,339.36,413.87,340.39,412.6,340.39z"/>
			<path class="st8" d="M412.6,331.14h-23.92c-1.27,0-2.3-1.03-2.3-2.3l0,0c0-1.27,1.03-2.3,2.3-2.3h23.92c1.27,0,2.3,1.03,2.3,2.3
				l0,0C414.9,330.11,413.87,331.14,412.6,331.14z"/>
		</g>
	</g>
</g>
<g id="CHAT_BALLOON">
	<g>
		<path class="st3" d="M244.03,117.23c-0.86,2.57-1.44,6.36,0.56,10.11c0.3,0.56-0.28,1.19-0.85,0.92c-4.98-2.4-6.47-7.47-6.91-9.89
			c-1.38,0.12-2.78,0.18-4.2,0.18c-1.43,0-2.83-0.06-4.21-0.18c-0.44,2.43-1.94,7.49-6.92,9.89c-0.57,0.27-1.15-0.36-0.85-0.92
			c2-3.75,1.43-7.54,0.56-10.11v-0.01c-13.76-3.25-23.65-12.23-23.65-22.82c0-13.33,15.7-24.14,35.07-24.14
			c19.36,0,35.06,10.81,35.06,24.14C267.68,104.99,257.8,113.98,244.03,117.23z"/>
		<g>
			<g>
				<path class="st9" d="M218.03,86.86h29.17c1.55,0,2.8,1.25,2.8,2.8l0,0c0,1.55-1.25,2.8-2.8,2.8h-29.17c-1.55,0-2.8-1.25-2.8-2.8
					l0,0C215.23,88.12,216.48,86.86,218.03,86.86z"/>
				<path class="st9" d="M218.03,95.34h29.17c1.55,0,2.8,1.25,2.8,2.8v0c0,1.55-1.25,2.8-2.8,2.8h-29.17c-1.55,0-2.8-1.25-2.8-2.8v0
					C215.23,96.59,216.48,95.34,218.03,95.34z"/>
			</g>
		</g>
	</g>
</g>
<g id="WOMAN_1_LEFT_UPPER_ARM">
	<g>
		<g>
			<path class="st2" d="M211.5,197.88l8.79,20.46c0,0,7.61,18.6-6.09,24.01s-19.27-13.36-19.27-13.36l-8.28-24.18L211.5,197.88z"/>
			<path class="st5" d="M191.19,148.66c7.23,3.61,24.61,50.81,24.61,50.81s-11.94,12.77-31.01,11.8c0,0-8.62-24.82-8.85-42.44
				C175.7,151.21,183.54,144.84,191.19,148.66z"/>
			<path class="st1" d="M211.44,196.86c0,0-13.15,8-23.66,9.02"/>
		</g>
	</g>
</g>
<g id="WOMAN_1_LEFT_ARM">
	<g>
		<path class="st2" d="M242.92,175.04l-4.47,9.31h9.09l0.67-7.87c0.13-1.48-0.93-2.8-2.4-3h0
			C244.6,173.32,243.44,173.95,242.92,175.04z"/>
		<path class="st4" d="M228.28,192.27c0,0,0.79-2.96,0.88-5.63c0.09-2.67,2.67-4.72,7.4-4.72c4.72,0,9.81,0,9.81,0
			s2.59-9.16,4.29-10.58c1.69-1.43,4.92-1.51,7.59-1.07c2.67,0.45,0.27,10.69,0.27,10.69s2.5-8.11,3.3-10.16
			c0.8-2.05,4.63-2.67,4.28,1.69s-1.87,16.93-5.7,19.51c-3.83,2.58-17.49,4.99-17.49,4.99L226,233.89
			c-4.49,9.81-17.67,12.11-24.87,4.08c-0.1-0.11-0.2-0.23-0.3-0.34c-4.8-5.61-4.32-14.02,0.94-19.21L228.28,192.27z"/>
		<path class="st1" d="M201.77,218.42l26.51-26.15c0,0,0.79-2.96,0.88-5.63c0.09-2.67,2.67-4.72,7.4-4.72c4.72,0,9.81,0,9.81,0
			s2.59-9.16,4.29-10.58c1.69-1.43,4.92-1.51,7.59-1.07c2.67,0.45,0.27,10.69,0.27,10.69s2.5-8.11,3.3-10.16
			c0.8-2.05,4.63-2.67,4.28,1.69s-1.87,16.93-5.7,19.51c-3.83,2.58-17.49,4.99-17.49,4.99L226,233.89
			c-3.02,6.59-9.95,9.79-16.36,8.75"/>
	</g>
</g>
<g id="WOMAN_1_BODY">
	<g>
		<path class="st5" d="M183.94,148.49l-19.27,2.37l-41.59-10.14l-17.18,79.62l-15.92,56.55c0,0,40.25,8.62,63.92,7.6
			s44.2-5.47,44.2-5.47s-7.73-48.37-9.08-67.98c0,0,8.79-16.23,10.82-24.01C201.86,179.26,183.94,148.49,183.94,148.49z"/>
		<path class="st1" d="M194.77,199.65c2.11-4.47,4.2-9.31,5.06-12.61c1.67-6.4-10.18-28.38-14.42-35.96"/>
		<path class="st1" d="M195.01,273.32c0,0-23.56,3.4-40.51,3.68s-58.57-5.58-58.57-5.58"/>
	</g>
</g>
<g id="WOMAN_1_NECK">
	<path class="st2" d="M172.77,135.28l-2.6,21.98c0,0-4.51,5.42-9.67,4.51s-8.87-7.52-8.87-7.52l5.37-23.87L172.77,135.28z"/>
</g>
<g id="WOMAN_1_HAIR">
	<path class="st7" d="M152.94,95.78c4.91,4.84-5.09,15.08-8.83,18.09c-3.74,3.01-5.48,15.34-14.56,15.92
		c-9.08,0.58-1.28,21.4-26.68,28.86c-19.58,5.75-41.06-13.71-32.23-25.1s31.79-8.77,39.74-19.29c5.06-6.69,6.41-18.85,20.47-17.6
		C141.34,97.59,149.06,91.96,152.94,95.78z"/>
</g>
<g id="WOMAN_1_HEAD">
	<g>
		<g>
			<path class="st2" d="M153.53,98.1l-2.36-0.95c-0.75-0.3-1.61-0.18-2.24,0.33c-0.73,0.59-1.63,1.49-2.14,2.61
				c-0.57,1.27-0.35,2.65-0.09,3.53c0.17,0.57,0.56,1.04,1.08,1.32l2.55,1.38c1.24,0.67,2.79,0.04,3.21-1.31l1.29-4.18
				C155.18,99.73,154.61,98.54,153.53,98.1z"/>
			<g>
				<g>
					<path class="st4" d="M185.61,123.9c0.05,8.32-3.04,18.11-13.08,18.45c-7.38,0.25-16.08-8.12-17.38-19.27
						s0.05-20.86,13.56-21.01c1.21-0.01,3.23,0.13,4.32,0.3c7.92,1.25,10.94,1.76,12.46,17.09
						C185.62,120.82,185.6,122.33,185.61,123.9z"/>
				</g>
				<g>
					<path class="st1" d="M173.02,102.37c7.92,1.25,10.94,1.76,12.46,17.09c0.13,1.36,0.12,2.87,0.12,4.44
						c0.05,8.32-3.04,18.11-13.08,18.45c-2.77,0.1-5.68-1.27-8.81-3.37"/>
				</g>
			</g>
			<path class="st7" d="M158.96,124.36c3.29-1.75,4.36-4.51,4.53-7.04c0.06-1,0.02-2.33,0.19-3.56c6.36,5.51,17.64,8.16,22.54,9.09
				c1.57,0.3,3.22-0.38,3.99-1.78c4.78-8.74-3.33-23.84-13.96-22.53c-12.89-7.23-26.44,0.19-27.49,10.6
				C147.6,120.68,155.69,126.1,158.96,124.36z"/>
			<g>
				<path class="st4" d="M158.61,123.34c0,0-5.78-5.28-11.39-3.1c-5.61,2.18-2.65,15.47,11.38,12.93L158.61,123.34z"/>
				<path class="st1" d="M158.61,123.34c0,0-5.78-5.28-11.39-3.1c-5.61,2.18-2.65,15.47,11.38,12.93"/>
			</g>
		</g>
	</g>
</g>
<g id="WOMAN_1_RIGHT_UPPER_ARM">
	<g>
		<path class="st2" d="M116.9,201l-25.54-7.22l-10.79,31.15c-4.75,14.52,13.81,24.04,24.94,7.09L116.9,201z"/>
		<g>
			<path class="st5" d="M119.54,204.49c0,0-13.37,4.97-33.49-7.22c0,0,17.54-60.15,37.03-56.55c17.19,3.18,7.79,28.92,4.67,36.85
				C124.64,185.5,119.54,204.49,119.54,204.49z"/>
			<path class="st1" d="M129.63,144.02c7.67,7.99,0.72,26.94-1.87,33.55c-3.12,7.93-8.22,26.92-8.22,26.92"/>
			<g>
				<g>
					<path class="st1" d="M114.8,200.52c0,0-11.47,1.74-23.81-5.97"/>
				</g>
			</g>
		</g>
	</g>
</g>
<g id="WOMAN_1_RIGHT_ARM">
	<g>
		<path class="st4" d="M27.64,277.32c-0.05-0.08-0.09-0.17-0.13-0.25c-0.32-0.74-0.18-1.62,0.39-2.22c2.02-2.12,6.35-6.57,8.12-7.56
			c2.34-1.32,6.35-2.75,6.35-2.75l-5.99-0.97c-1-0.16-1.69-1.08-1.58-2.09c0.08-0.69,0.52-1.26,1.13-1.52
			c0.23-0.1,0.49-0.16,0.77-0.15l14.52,0.1l23.88-29.67c16.78-23.1,28.78-17.16,31.97-6.23c0.21,6.65-2.57,9.86-4.21,12.01
			c-9.76,12.77-44.97,33.26-44.97,33.26s-0.96,7.24-7.41,9.43c-6.45,2.19-7.12,11.32-10.15,10.82c-3.03-0.5-8.59-5.22-9.25-7.45
			c-0.65-2.19,4.7-8.73,4.87-8.93l-5.2,4.63C29.79,278.63,28.3,278.41,27.64,277.32z"/>
		<path class="st1" d="M106.73,228.4c-0.77,3.81-2.64,6.02-3.87,7.63c-9.76,12.77-44.97,33.26-44.97,33.26s-0.96,7.24-7.41,9.43
			c-6.45,2.19-7.12,11.32-10.15,10.82c-3.03-0.5-8.59-5.22-9.25-7.45c-0.65-2.19,4.7-8.73,4.87-8.93l-5.2,4.63
			c-0.95,0.85-2.44,0.63-3.1-0.46c-0.05-0.08-0.09-0.17-0.13-0.25c-0.32-0.74-0.18-1.62,0.39-2.22c2.02-2.12,6.35-6.57,8.12-7.56
			c2.34-1.32,6.35-2.75,6.35-2.75l-5.99-0.97c-1-0.16-1.69-1.08-1.58-2.09c0.08-0.69,0.52-1.26,1.13-1.52
			c0.23-0.1,0.49-0.16,0.77-0.15l14.52,0.1l23.88-29.67c2.48-3.41,4.85-6.19,7.11-8.41"/>
	</g>
</g>
<g id="ORNAMENT_6">
	<circle class="st0" cx="78.13" cy="87.52" r="9.45"/>
</g>
<g id="ORNAMENT_5">
	<circle class="st5" cx="525.94" cy="125.71" r="7.42"/>
</g>
<g id="ORNAMENT_4">
	<circle class="st0" cx="539.56" cy="373.73" r="9.45"/>
</g>
<g id="ORNAMENT_3">
	<circle class="st5" cx="379.84" cy="379.43" r="9.45"/>
</g>
<g id="ORNAMENT_2">
	<circle class="st0" cx="379.84" cy="134.87" r="5.16"/>
</g>
<g id="ORNAMENT_1">
	<circle class="st5" cx="65.19" cy="316.32" r="5.41"/>
</g>
</svg>
